<svg width="419" height="321" viewBox="0 0 419 321" fill="none" xmlns="http://www.w3.org/2000/svg">
<path d="M64.0935 0.00140381C64.0822 0.00140381 64.0695 0.00140381 64.0582 0.00140381C60.0953 0.00140381 56.368 1.5462 53.5535 4.35365C50.708 7.19214 49.1406 10.9716 49.1406 14.9951V239.824C49.1406 248.068 55.8743 254.792 64.1527 254.813C99.0525 254.897 157.524 262.171 197.861 304.382V69.0928C197.861 66.2981 197.147 63.6726 195.799 61.5C162.693 8.18392 99.0723 0.0832289 64.0935 0.00140381Z" fill="white"/>
<path d="M369.858 239.824V14.9937C369.858 10.9702 368.291 7.19073 365.445 4.35225C362.631 1.5448 358.901 0 354.942 0C354.929 0 354.917 0 354.905 0C319.928 0.0832359 256.308 8.18392 223.199 61.5C221.852 63.6726 221.14 66.2981 221.14 69.0928V304.381C261.477 262.169 319.948 254.895 354.848 254.812C363.125 254.791 369.858 248.067 369.858 239.824Z" fill="white"/>
<path d="M404.008 51.8503H393.136V239.824C393.136 260.874 375.985 278.039 354.903 278.091C325.3 278.162 276.49 283.95 241.922 316.667C301.708 302.029 364.733 311.545 400.651 319.73C405.136 320.752 409.771 319.696 413.364 316.833C416.944 313.976 418.999 309.705 418.999 305.122V66.8412C419 58.5755 412.273 51.8503 404.008 51.8503Z" fill="white"/>
<path d="M25.8614 239.824V51.8503H14.99C6.72561 51.8503 -0.000976562 58.5755 -0.000976562 66.8412V305.117C-0.000976562 309.702 2.05312 313.971 5.63367 316.828C9.2241 319.691 13.8543 320.75 18.3462 319.726C54.2646 311.539 117.291 302.025 177.074 316.663C142.507 283.947 93.6973 278.16 64.0949 278.09C43.0136 278.039 25.8614 260.874 25.8614 239.824Z" fill="white"/>
</svg>
