<svg width="32" height="60" viewBox="0 0 32 60" fill="none" xmlns="http://www.w3.org/2000/svg">
<path d="M31.2546 15.2542C31.2546 6.84305 24.4115 0 16.0003 0C7.58914 0 0.746094 6.84305 0.746094 15.2542C0.746094 23.3227 7.04609 29.9298 14.9834 30.4566V58.9831C14.9834 59.5454 15.439 60 16.0003 60C16.5617 60 17.0173 59.5454 17.0173 58.9831V30.4566C24.9546 29.9298 31.2546 23.3227 31.2546 15.2542ZM10.9156 15.2542C8.6722 15.2542 6.84779 13.4298 6.84779 11.1864C6.84779 8.94305 8.6722 7.11864 10.9156 7.11864C13.159 7.11864 14.9834 8.94305 14.9834 11.1864C14.9834 13.4298 13.159 15.2542 10.9156 15.2542Z" fill="#E45426"/>
</svg>
