<svg width="103" height="46" viewBox="0 0 103 46" fill="none" xmlns="http://www.w3.org/2000/svg">
<g clip-path="url(#clip0_591_2955)">
<mask id="mask0_591_2955" style="mask-type:luminance" maskUnits="userSpaceOnUse" x="-65" y="-36" width="234" height="118">
<path d="M-64.792 -35.0816H168.106V81.3677H-64.792V-35.0816Z" fill="white"/>
</mask>
<g mask="url(#mask0_591_2955)">
<mask id="mask1_591_2955" style="mask-type:luminance" maskUnits="userSpaceOnUse" x="59" y="12" width="44" height="19">
<path d="M59.96 12.4861H102.22V30.4147H59.96V12.4861Z" fill="white"/>
</mask>
<g mask="url(#mask1_591_2955)">
<path d="M69.7027 23.7855C69.7027 21.9024 68.4474 20.7223 66.7147 20.7223C64.982 20.7223 63.7265 21.9024 63.7265 23.7855C63.7265 25.6689 64.982 26.8491 66.7147 26.8491C68.4474 26.8491 69.7027 25.6689 69.7027 23.7855ZM73.4694 23.7855C73.4694 27.527 70.7574 30.4147 67.468 30.4147C65.7856 30.4147 64.5552 29.8372 63.7265 28.8832V30.0633H59.96V12.4861H63.7265V18.6882C64.5552 17.7342 65.7856 17.1565 67.468 17.1565C70.7574 17.1565 73.4694 20.0443 73.4694 23.7855Z" fill="#0E0E0E"/>
<path d="M84.2904 22.4801C83.8887 21.0236 82.7587 20.4963 81.6287 20.4963C80.1975 20.4963 79.2432 21.1993 78.8915 22.4801H84.2904ZM81.9803 27.05C83.0099 27.05 83.8887 26.6483 84.3908 26.0959L87.4041 27.8285C86.1737 29.5359 84.3154 30.4147 81.93 30.4147C77.6362 30.4147 74.9746 27.527 74.9746 23.7855C74.9746 20.0444 77.6863 17.1565 81.6538 17.1565C85.3198 17.1565 88.0319 19.9941 88.0319 23.7855C88.0319 24.3129 87.9816 24.8152 87.8811 25.2925H78.9671C79.4441 26.598 80.5994 27.05 81.9803 27.05Z" fill="#0E0E0E"/>
<path d="M97.9513 30.0631L93.9335 24.5137V30.0631H90.167V12.486H93.9335V23.007L97.7001 17.508H102.095L97.5243 23.7853L102.22 30.0631H97.9513Z" fill="#0E0E0E"/>
</g>
<mask id="mask2_591_2955" style="mask-type:luminance" maskUnits="userSpaceOnUse" x="59" y="32" width="40" height="10">
<path d="M59.9229 32.9725H98.233V41.9738H59.9229V32.9725Z" fill="white"/>
</mask>
<g mask="url(#mask2_591_2955)">
<path d="M62.7584 36.8246H61.9881V35.4442L61.3887 36.3751H61.2926L60.6932 35.4442V36.8246H59.9229V34.1493H60.6932L61.3406 35.1604L61.9881 34.1493H62.7584V36.8246Z" fill="#0E0E0E"/>
<path d="M66.7184 36.8246H65.916V34.1493H66.7184V36.8246ZM64.867 35.8883C64.867 35.7492 64.7654 35.6474 64.6049 35.6474H64.1501V36.1291H64.6049C64.7654 36.1291 64.867 36.0275 64.867 35.8883ZM65.6483 35.8883C65.6483 36.4501 65.2469 36.8246 64.5995 36.8246H63.3477V34.1493H64.1501V34.9518H64.5995C65.2469 34.9518 65.6483 35.3263 65.6483 35.8883Z" fill="#0E0E0E"/>
<path d="M70.9745 36.8247H70.1718V34.9197H69.594V35.7173C69.594 36.525 69.1873 36.9157 68.4062 36.8247V36.0756C68.6576 36.1505 68.7916 35.9954 68.7916 35.6636V34.1494H70.9745V36.8247Z" fill="#0E0E0E"/>
<path d="M74.6657 35.487C74.6657 35.1071 74.3982 34.8554 74.0503 34.8554C73.7027 34.8554 73.4351 35.1071 73.4351 35.487C73.4351 35.8668 73.7027 36.1183 74.0503 36.1183C74.3982 36.1183 74.6657 35.8668 74.6657 35.487ZM75.4685 35.487C75.4685 36.2843 74.8371 36.8994 74.0503 36.8994C73.3924 36.8994 72.8571 36.4716 72.7021 35.8616H72.365V36.8246H71.5625V34.1495H72.365V35.1125H72.7021C72.8571 34.5023 73.3924 34.0745 74.0503 34.0745C74.8371 34.0745 75.4685 34.6898 75.4685 35.487Z" fill="#0E0E0E"/>
<path d="M77.7804 35.6476C77.7804 35.3372 77.5344 35.1071 77.1972 35.1071C76.919 35.1071 76.6301 35.2943 76.6301 35.6262C76.6301 35.9527 76.8868 36.1773 77.2132 36.1773C77.5451 36.1773 77.7804 35.9527 77.7804 35.6476ZM75.79 35.4444C75.79 34.5829 75.956 34.128 76.812 33.7052C77.3844 33.4218 77.6197 33.3522 77.7751 32.9723L78.4385 33.3522C78.3315 33.8015 77.9998 33.9997 77.4326 34.2135C76.9564 34.3901 76.8174 34.5452 76.7424 34.7326C76.9349 34.5614 77.1972 34.4812 77.4754 34.4812C77.9676 34.4812 78.5829 34.8876 78.5829 35.6476C78.5829 36.37 78.0586 36.8995 77.2186 36.8995C76.3302 36.8995 75.79 36.2684 75.79 35.4444Z" fill="#0E0E0E"/>
<path d="M81.4737 34.1493V36.8246H80.6925V35.4869L79.5475 36.8246H78.959V34.1493H79.7401V35.4869L80.8851 34.1493H81.4737Z" fill="#0E0E0E"/>
<path d="M84.8982 36.8246H84.1277V35.4442L83.5285 36.3751H83.4322L82.833 35.4442V36.8246H82.0625V34.1493H82.833L83.4803 35.1604L84.1277 34.1493H84.8982V36.8246Z" fill="#0E0E0E"/>
<path d="M61.4959 40.3949C61.4959 40.2665 61.3996 40.2076 61.2606 40.2076H60.6718V40.5929H61.2606C61.3996 40.5929 61.4959 40.5288 61.4959 40.3949ZM60.6718 39.2231V39.5977H61.1748C61.3192 39.5977 61.4102 39.5441 61.4102 39.4157C61.4102 39.282 61.3192 39.2231 61.1748 39.2231H60.6718ZM62.277 40.4913C62.277 40.9354 61.9613 41.2563 61.3674 41.2563H59.9229V38.5811H61.2606C61.8543 38.5811 62.17 38.902 62.17 39.3461C62.17 39.5763 62.0844 39.7635 61.9185 39.8866C62.1486 40.0098 62.277 40.2183 62.277 40.4913Z" fill="#0E0E0E"/>
<path d="M62.5449 39.9186C62.5449 39.1214 63.1494 38.5061 63.9627 38.5061C64.4818 38.5061 64.942 38.779 65.172 39.191L64.471 39.5977C64.38 39.4103 64.1876 39.298 63.9522 39.298C63.6043 39.298 63.3475 39.5495 63.3475 39.9186C63.3475 40.2879 63.6043 40.5393 63.9522 40.5393C64.1876 40.5393 64.3854 40.4269 64.471 40.2396L65.172 40.6411C64.942 41.0582 64.4871 41.3312 63.9627 41.3312C63.1494 41.3312 62.5449 40.7159 62.5449 39.9186Z" fill="#0E0E0E"/>
<path d="M67.2917 39.6406C67.2061 39.3303 66.9653 39.2177 66.7246 39.2177C66.4195 39.2177 66.2161 39.3677 66.1413 39.6406H67.2917ZM66.7994 40.6143C67.0189 40.6143 67.2061 40.529 67.3129 40.4111L67.9551 40.7802C67.693 41.1441 67.297 41.3313 66.7887 41.3313C65.8737 41.3313 65.3066 40.716 65.3066 39.9188C65.3066 39.1217 65.8845 38.5062 66.7298 38.5062C67.511 38.5062 68.089 39.1108 68.089 39.9188C68.089 40.0311 68.0783 40.1381 68.0569 40.2397H66.1574C66.2589 40.5179 66.5052 40.6143 66.7994 40.6143Z" fill="#0E0E0E"/>
<path d="M70.0045 41.2566L69.5068 40.5502L69.0093 41.2566H68.0889L69.0467 39.8975L68.121 38.5813H69.0414L69.5068 39.2448L69.9723 38.5813H70.8927L69.967 39.8975L70.9247 41.2566H70.0045Z" fill="#0E0E0E"/>
<path d="M75.0712 38.5811V41.2563H74.2901V39.9186L73.1451 41.2563H72.5566V38.5811H73.3376V39.9186L74.4827 38.5811H75.0712Z" fill="#0E0E0E"/>
<path d="M78.6587 41.2563L77.8025 40.0738V41.2563H77V38.5811H77.8025V39.7528L78.605 38.5811H79.5415L78.5676 39.9188L79.5683 41.2563H78.6587Z" fill="#0E0E0E"/>
<path d="M81.6444 39.9188C81.6444 39.5175 81.377 39.2661 81.0077 39.2661C80.6385 39.2661 80.3708 39.5175 80.3708 39.9188C80.3708 40.3202 80.6385 40.5715 81.0077 40.5715C81.377 40.5715 81.6444 40.3202 81.6444 39.9188ZM82.4471 38.5812V41.2563H81.6444V41.0051C81.4678 41.2083 81.2055 41.3313 80.8471 41.3313C80.1462 41.3313 79.5684 40.716 79.5684 39.9188C79.5684 39.1215 80.1462 38.5062 80.8471 38.5062C81.2055 38.5062 81.4678 38.6292 81.6444 38.8326V38.5812H82.4471Z" fill="#0E0E0E"/>
<path d="M85.9197 41.2566L85.192 40.0954V41.2566H84.4108V40.0954L83.683 41.2566H82.7949L83.683 39.919L82.8482 38.5813H83.7366L84.4108 39.7263V38.5813H85.192V39.7263L85.8661 38.5813H86.7542L85.9197 39.919L86.8079 41.2566H85.9197Z" fill="#0E0E0E"/>
<path d="M88.8367 40.5073V39.2981H88.2427V39.5818C88.2427 39.9724 88.1894 40.2667 88.0876 40.5073H88.8367ZM89.9658 40.5073V41.9734H89.1846V41.2564H87.697V41.9734H86.916V40.5073H87.2475C87.3812 40.2987 87.4616 40.0421 87.4616 39.5818V38.5812H89.6178V40.5073H89.9658Z" fill="#0E0E0E"/>
<path d="M92.1592 39.9186C92.1592 39.5389 91.8916 39.2873 91.5437 39.2873C91.1961 39.2873 90.9286 39.5389 90.9286 39.9186C90.9286 40.2986 91.1961 40.5499 91.5437 40.5499C91.8916 40.5499 92.1592 40.2986 92.1592 39.9186ZM90.126 39.9186C90.126 39.1214 90.7573 38.5061 91.5437 38.5061C92.3305 38.5061 92.962 39.1214 92.962 39.9186C92.962 40.7159 92.3305 41.3312 91.5437 41.3312C90.7573 41.3312 90.126 40.7159 90.126 39.9186Z" fill="#0E0E0E"/>
<path d="M95.2896 39.3515H94.2195V41.2563H93.417V38.5811H95.2896V39.3515Z" fill="#0E0E0E"/>
<path d="M97.4307 39.9188C97.4307 39.539 97.1631 39.2875 96.8152 39.2875C96.4676 39.2875 96.2001 39.539 96.2001 39.9188C96.2001 40.2987 96.4676 40.5501 96.8152 40.5501C97.1631 40.5501 97.4307 40.2987 97.4307 39.9188ZM95.3975 39.9188C95.3975 39.1215 96.0288 38.5062 96.8152 38.5062C97.602 38.5062 98.2334 39.1215 98.2334 39.9188C98.2334 40.716 97.602 41.3313 96.8152 41.3313C96.0288 41.3313 95.3975 40.716 95.3975 39.9188Z" fill="#0E0E0E"/>
</g>
<mask id="mask3_591_2955" style="mask-type:luminance" maskUnits="userSpaceOnUse" x="27" y="10" width="26" height="37">
<path d="M27.79 10.5502H52.4611V46.2474H27.79V10.5502Z" fill="white"/>
</mask>
<g mask="url(#mask3_591_2955)">
<mask id="mask4_591_2955" style="mask-type:luminance" maskUnits="userSpaceOnUse" x="27" y="10" width="26" height="37">
<path d="M27.7881 42.9062V46.2474C28.2807 44.1963 31.6094 41.413 35.1486 41.413H52.4592V10.5502H35.1486C32.0354 10.5502 29.3038 12.2119 27.7881 14.6897V22.073V42.9062Z" fill="white"/>
</mask>
<g mask="url(#mask4_591_2955)">
<mask id="mask5_591_2955" style="mask-type:luminance" maskUnits="userSpaceOnUse" x="-4835" y="-4689" width="9540" height="9541">
<path d="M-4834.55 -4688.25H4704.82V4851.13H-4834.55V-4688.25Z" fill="url(#paint0_linear_591_2955)"/>
</mask>
<g mask="url(#mask5_591_2955)">
<path d="M27.7881 42.9063V46.2476C28.2807 44.1965 31.6094 41.4132 35.1486 41.4132H52.4592V10.5503H35.1486C32.0354 10.5503 29.3038 12.2121 27.7881 14.6898V22.0731V42.9063Z" fill="url(#paint1_linear_591_2955)"/>
</g>
</g>
</g>
<mask id="mask6_591_2955" style="mask-type:luminance" maskUnits="userSpaceOnUse" x="3" y="10" width="25" height="37">
<path d="M3.12012 10.5498H27.791V46.2471H3.12012V10.5498Z" fill="white"/>
</mask>
<g mask="url(#mask6_591_2955)">
<mask id="mask7_591_2955" style="mask-type:luminance" maskUnits="userSpaceOnUse" x="3" y="10" width="25" height="37">
<path d="M27.7931 42.9061V46.2473C27.1847 44.3271 23.9719 41.4129 20.4328 41.4129H3.12207V10.5501H20.4328C23.5458 10.5501 26.2774 12.2118 27.7931 14.6896V22.0729V42.9061Z" fill="white"/>
</mask>
<g mask="url(#mask7_591_2955)">
<mask id="mask8_591_2955" style="mask-type:luminance" maskUnits="userSpaceOnUse" x="-4835" y="-4689" width="9540" height="9541">
<path d="M-4834.55 -4688.25H4704.83V4851.13H-4834.55V-4688.25Z" fill="url(#paint2_linear_591_2955)"/>
</mask>
<g mask="url(#mask8_591_2955)">
<path d="M27.7941 42.9061V46.2473C27.1857 44.3271 23.9728 41.4129 20.4338 41.4129H3.12305V10.5501H20.4338C23.5468 10.5501 26.2784 12.2118 27.7941 14.6896V22.0729V42.9061Z" fill="url(#paint3_linear_591_2955)"/>
</g>
</g>
</g>
<mask id="mask9_591_2955" style="mask-type:luminance" maskUnits="userSpaceOnUse" x="27" y="-1" width="21" height="43">
<path d="M27.79 -0.06402H47.8564V41.9792H27.79V-0.06402Z" fill="white"/>
</mask>
<g mask="url(#mask9_591_2955)">
<mask id="mask10_591_2955" style="mask-type:luminance" maskUnits="userSpaceOnUse" x="27" y="-1" width="21" height="43">
<path d="M27.7882 15.0313C27.7882 15.0313 27.7881 9.88832 27.7881 9.66415C28.6386 7.18757 31.4104 6.04389 32.9484 5.45044C35.5191 4.45858 46.0588 0.594359 46.1649 0.555203L47.8545 -0.06402V31.6747L46.9996 31.9632C46.8983 31.9974 36.8608 35.4443 34.3793 36.2644C30.9516 37.397 28.2284 40.4867 27.7882 41.9792V38.7869V15.0313Z" fill="white"/>
</mask>
<g mask="url(#mask10_591_2955)">
<mask id="mask11_591_2955" style="mask-type:luminance" maskUnits="userSpaceOnUse" x="-4835" y="-4689" width="9540" height="9541">
<path d="M-4834.55 -4688.25H4704.82V4851.13H-4834.55V-4688.25Z" fill="url(#paint4_linear_591_2955)"/>
</mask>
<g mask="url(#mask11_591_2955)">
<path d="M27.7882 15.0308C27.7882 15.0308 27.7881 9.88783 27.7881 9.66366C28.6386 7.18708 31.4104 6.0434 32.9484 5.44995C35.5191 4.45809 46.0588 0.593871 46.1649 0.554715L47.8545 -0.0645083V31.6742L46.9996 31.9627C46.8983 31.9969 36.8608 35.4438 34.3793 36.2639C30.9516 37.3965 28.2284 40.4862 27.7882 41.9788V38.7864V15.0308Z" fill="url(#paint5_linear_591_2955)"/>
</g>
</g>
</g>
<mask id="mask12_591_2955" style="mask-type:luminance" maskUnits="userSpaceOnUse" x="7" y="-1" width="21" height="43">
<path d="M7.72559 -0.0604598H27.7918V41.9827H7.72559V-0.0604598Z" fill="white"/>
</mask>
<g mask="url(#mask12_591_2955)">
<mask id="mask13_591_2955" style="mask-type:luminance" maskUnits="userSpaceOnUse" x="7" y="-1" width="21" height="43">
<path d="M27.79 15.0349C27.79 15.0349 27.79 9.83912 27.79 9.66794C27.1743 7.57156 24.1679 6.04753 22.6299 5.45422C20.0591 4.46222 9.51943 0.597998 9.41317 0.558987L7.72363 -0.0602358V31.6784L8.57852 31.9668C8.67983 32.001 18.7173 35.4479 21.199 36.268C24.6267 37.4006 27.3498 40.4904 27.79 41.983V38.7906V15.0349Z" fill="white"/>
</mask>
<g mask="url(#mask13_591_2955)">
<mask id="mask14_591_2955" style="mask-type:luminance" maskUnits="userSpaceOnUse" x="-4835" y="-4689" width="9540" height="9541">
<path d="M-4834.55 -4688.25H4704.82V4851.13H-4834.55V-4688.25Z" fill="url(#paint6_linear_591_2955)"/>
</mask>
<g mask="url(#mask14_591_2955)">
<path d="M27.789 15.0333C27.789 15.0333 27.789 9.83753 27.789 9.66635C27.1733 7.56997 24.1669 6.04594 22.6289 5.45264C20.0581 4.46063 9.51845 0.596411 9.41219 0.5574L7.72266 -0.0618227V31.6769L8.57754 31.9652C8.67885 31.9994 18.7163 35.4463 21.198 36.2664C24.6257 37.399 27.3489 40.4889 27.789 41.9814V38.789V15.0333Z" fill="url(#paint7_linear_591_2955)"/>
</g>
</g>
</g>
</g>
<mask id="mask15_591_2955" style="mask-type:luminance" maskUnits="userSpaceOnUse" x="27" y="17" width="11" height="18">
<path d="M27.79 19.7916V23.0878V30.7234V34.2286C27.79 32.1261 32.2547 29.6619 34.1942 28.19C34.8557 27.6877 35.4272 27.2541 35.8408 26.8753C36.8208 25.9779 37.3828 24.5976 37.3828 23.0878C37.3828 20.0927 34.946 17.6559 31.9509 17.6559C30.28 17.6559 28.7899 18.5642 27.79 19.7916Z" fill="white"/>
</mask>
<g mask="url(#mask15_591_2955)">
<mask id="mask16_591_2955" style="mask-type:luminance" maskUnits="userSpaceOnUse" x="-4835" y="-4689" width="9540" height="9541">
<path d="M-4834.55 -4688.25H4704.82V4851.13H-4834.55V-4688.25Z" fill="url(#paint8_linear_591_2955)"/>
</mask>
<g mask="url(#mask16_591_2955)">
<path d="M27.7891 19.7909V23.0872V30.7228V34.228C27.7891 32.1255 32.2537 29.6613 34.1932 28.1894C34.8548 27.6871 35.4262 27.2534 35.8398 26.8747C36.8198 25.9773 37.3819 24.597 37.3819 23.0872C37.3819 20.0921 34.945 17.6553 31.9499 17.6553C30.279 17.6553 28.7889 18.5636 27.7891 19.7909Z" fill="url(#paint9_linear_591_2955)"/>
</g>
</g>
<mask id="mask17_591_2955" style="mask-type:luminance" maskUnits="userSpaceOnUse" x="18" y="17" width="10" height="18">
<path d="M18.1982 23.0879C18.1982 24.5977 18.7601 25.978 19.7402 26.8754C20.1539 27.2542 20.7252 27.6878 21.3866 28.1901C23.3265 29.6621 27.7909 32.1263 27.7909 34.2288V30.7235V23.0879V19.7917C26.791 18.5643 25.3011 17.656 23.63 17.656C20.6349 17.656 18.1982 20.0928 18.1982 23.0879Z" fill="white"/>
</mask>
<g mask="url(#mask17_591_2955)">
<mask id="mask18_591_2955" style="mask-type:luminance" maskUnits="userSpaceOnUse" x="-4835" y="-4689" width="9540" height="9541">
<path d="M-4834.55 -4688.25H4704.83V4851.13H-4834.55V-4688.25Z" fill="url(#paint10_linear_591_2955)"/>
</mask>
<g mask="url(#mask18_591_2955)">
<path d="M18.1982 23.0869C18.1982 24.5967 18.7601 25.9771 19.7402 26.8745C20.1539 27.2532 20.7252 27.6868 21.3866 28.1892C23.3265 29.6611 27.7909 32.1253 27.7909 34.2278V30.7225V23.0869V19.7907C26.791 18.5633 25.3011 17.655 23.63 17.655C20.6349 17.655 18.1982 20.0919 18.1982 23.0869Z" fill="url(#paint11_linear_591_2955)"/>
</g>
</g>
<mask id="mask19_591_2955" style="mask-type:luminance" maskUnits="userSpaceOnUse" x="27" y="10" width="26" height="37">
<path d="M27.7949 10.5498H52.4659V46.2471H27.7949V10.5498Z" fill="white"/>
</mask>
<g mask="url(#mask19_591_2955)">
<mask id="mask20_591_2955" style="mask-type:luminance" maskUnits="userSpaceOnUse" x="27" y="10" width="26" height="37">
<path d="M27.7969 42.9057V46.2469C28.2895 44.1958 31.6182 41.4126 35.1573 41.4126H52.4678V10.5497H35.1573C32.0442 10.5497 29.3126 12.2115 27.7969 14.6893V22.0725V42.9057Z" fill="white"/>
</mask>
<g mask="url(#mask20_591_2955)">
<mask id="mask21_591_2955" style="mask-type:luminance" maskUnits="userSpaceOnUse" x="-4835" y="-4689" width="9540" height="9541">
<path d="M-4834.55 -4688.25H4704.83V4851.13H-4834.55V-4688.25Z" fill="url(#paint12_linear_591_2955)"/>
</mask>
<g mask="url(#mask21_591_2955)">
<path d="M27.7969 42.9054V46.2466C28.2895 44.1955 31.6182 41.4122 35.1573 41.4122H52.4678V10.5494H35.1573C32.0442 10.5494 29.3126 12.2111 27.7969 14.689V22.0722V42.9054Z" fill="url(#paint13_linear_591_2955)"/>
</g>
</g>
</g>
<mask id="mask22_591_2955" style="mask-type:luminance" maskUnits="userSpaceOnUse" x="3" y="10" width="25" height="37">
<path d="M3.12109 10.5498H27.7922V46.2471H3.12109V10.5498Z" fill="white"/>
</mask>
<g mask="url(#mask22_591_2955)">
<mask id="mask23_591_2955" style="mask-type:luminance" maskUnits="userSpaceOnUse" x="3" y="10" width="25" height="37">
<path d="M27.7901 42.9057V46.2469C27.1818 44.3267 23.9688 41.4126 20.4296 41.4126H3.11914V10.5497H20.4296C23.5427 10.5497 26.2743 12.2115 27.7901 14.6893V22.0725V42.9057Z" fill="white"/>
</mask>
<g mask="url(#mask23_591_2955)">
<mask id="mask24_591_2955" style="mask-type:luminance" maskUnits="userSpaceOnUse" x="-4835" y="-4689" width="9540" height="9541">
<path d="M-4834.55 -4688.25H4704.82V4851.13H-4834.55V-4688.25Z" fill="url(#paint14_linear_591_2955)"/>
</mask>
<g mask="url(#mask24_591_2955)">
<path d="M27.7891 42.9054V46.2466C27.1808 44.3263 23.9678 41.4122 20.4286 41.4122H3.11816V10.5494H20.4286C23.5418 10.5494 26.2734 12.2111 27.7891 14.689V22.0722V42.9054Z" fill="url(#paint15_linear_591_2955)"/>
</g>
</g>
</g>
<mask id="mask25_591_2955" style="mask-type:luminance" maskUnits="userSpaceOnUse" x="27" y="-1" width="21" height="43">
<path d="M27.7949 -0.0640182H47.8613V41.9792H27.7949V-0.0640182Z" fill="white"/>
</mask>
<g mask="url(#mask25_591_2955)">
<mask id="mask26_591_2955" style="mask-type:luminance" maskUnits="userSpaceOnUse" x="27" y="-1" width="21" height="43">
<path d="M27.797 15.0315C27.797 15.0315 27.7969 9.88856 27.7969 9.66454C28.6474 7.18781 31.4192 6.04414 32.9572 5.45068C35.5278 4.45882 46.0676 0.594604 46.1739 0.555447L47.8633 -0.0637741V31.6749L47.0084 31.9634C46.9072 31.9976 36.8696 35.4447 34.388 36.2646C30.9604 37.3972 28.2372 40.4869 27.797 41.9795V38.7872V15.0315Z" fill="white"/>
</mask>
<g mask="url(#mask26_591_2955)">
<mask id="mask27_591_2955" style="mask-type:luminance" maskUnits="userSpaceOnUse" x="-4835" y="-4689" width="9540" height="9541">
<path d="M-4834.55 -4688.25H4704.83V4851.13H-4834.55V-4688.25Z" fill="url(#paint16_linear_591_2955)"/>
</mask>
<g mask="url(#mask27_591_2955)">
<path d="M27.797 15.031C27.797 15.031 27.7969 9.88807 27.7969 9.66405C28.6474 7.18732 31.4192 6.04365 32.9572 5.4502C35.5278 4.45834 46.0676 0.594116 46.1739 0.554958L47.8633 -0.0642624V31.6744L47.0084 31.9629C46.9072 31.9971 36.8696 35.4442 34.388 36.2641C30.9604 37.3967 28.2372 40.4864 27.797 41.979V38.7867V15.031Z" fill="url(#paint17_linear_591_2955)"/>
</g>
</g>
</g>
<mask id="mask28_591_2955" style="mask-type:luminance" maskUnits="userSpaceOnUse" x="7" y="-1" width="21" height="43">
<path d="M7.72363 -0.060215H27.79V41.9829H7.72363V-0.060215Z" fill="white"/>
</mask>
<g mask="url(#mask28_591_2955)">
<mask id="mask29_591_2955" style="mask-type:luminance" maskUnits="userSpaceOnUse" x="7" y="-1" width="21" height="43">
<path d="M27.7889 15.0348C27.7889 15.0348 27.7889 9.83899 27.7889 9.66781C27.1732 7.57143 24.1666 6.04755 22.6287 5.4541C20.058 4.4621 9.5183 0.597878 9.41204 0.558865L7.72266 -0.0603561V31.6783L8.57739 31.9667C8.6787 32.001 18.7162 35.4479 21.1979 36.2679C24.6256 37.4005 27.3487 40.4903 27.7889 41.9829V38.7905V15.0348Z" fill="white"/>
</mask>
<g mask="url(#mask29_591_2955)">
<mask id="mask30_591_2955" style="mask-type:luminance" maskUnits="userSpaceOnUse" x="-4835" y="-4689" width="9540" height="9541">
<path d="M-4834.55 -4688.25H4704.82V4851.13H-4834.55V-4688.25Z" fill="url(#paint18_linear_591_2955)"/>
</mask>
<g mask="url(#mask30_591_2955)">
<path d="M27.7889 15.0348C27.7889 15.0348 27.7889 9.83899 27.7889 9.66781C27.1732 7.57143 24.1666 6.04755 22.6287 5.4541C20.058 4.4621 9.5183 0.597878 9.41204 0.558865L7.72266 -0.0603561V31.6783L8.57739 31.9667C8.6787 32.001 18.7162 35.4479 21.1979 36.2679C24.6256 37.4005 27.3487 40.4903 27.7889 41.9829V38.7905V15.0348Z" fill="url(#paint19_linear_591_2955)"/>
</g>
</g>
</g>
<mask id="mask31_591_2955" style="mask-type:luminance" maskUnits="userSpaceOnUse" x="27" y="17" width="11" height="18">
<path d="M27.792 19.7915V23.0879V30.7233V34.2288C27.792 32.126 32.2565 29.6619 34.1963 28.19C34.8577 27.6877 35.4292 27.254 35.8427 26.8753C36.8228 25.9779 37.3848 24.5975 37.3848 23.0879C37.3848 20.0927 34.9479 17.6559 31.9529 17.6559C30.282 17.6559 28.7919 18.5643 27.792 19.7915Z" fill="white"/>
</mask>
<g mask="url(#mask31_591_2955)">
<mask id="mask32_591_2955" style="mask-type:luminance" maskUnits="userSpaceOnUse" x="-4835" y="-4689" width="9540" height="9541">
<path d="M-4834.55 -4688.25H4704.83V4851.13H-4834.55V-4688.25Z" fill="url(#paint20_linear_591_2955)"/>
</mask>
<g mask="url(#mask32_591_2955)">
<path d="M27.79 19.791V23.0874V30.7229V34.2283C27.79 32.1255 32.2546 29.6614 34.1943 28.1895C34.8557 27.6872 35.4272 27.2535 35.8408 26.8748C36.8208 25.9774 37.3828 24.597 37.3828 23.0874C37.3828 20.0922 34.946 17.6554 31.9509 17.6554C30.28 17.6554 28.7899 18.5638 27.79 19.791Z" fill="url(#paint21_linear_591_2955)"/>
</g>
</g>
<mask id="mask33_591_2955" style="mask-type:luminance" maskUnits="userSpaceOnUse" x="18" y="17" width="10" height="18">
<path d="M18.1982 23.0879C18.1982 24.5975 18.7601 25.9779 19.7403 26.8753C20.1539 27.254 20.7252 27.6877 21.3868 28.19C23.3265 29.6619 27.7909 32.126 27.7909 34.2288V30.7233V23.0879V19.7915C26.791 18.5643 25.3009 17.6559 23.63 17.6559C20.6351 17.6559 18.1982 20.0927 18.1982 23.0879Z" fill="white"/>
</mask>
<g mask="url(#mask33_591_2955)">
<mask id="mask34_591_2955" style="mask-type:luminance" maskUnits="userSpaceOnUse" x="-4835" y="-4689" width="9540" height="9541">
<path d="M-4834.55 -4688.25H4704.82V4851.13H-4834.55V-4688.25Z" fill="url(#paint22_linear_591_2955)"/>
</mask>
<g mask="url(#mask34_591_2955)">
<path d="M18.1973 23.0869C18.1973 24.5966 18.7591 25.9769 19.7393 26.8743C20.1529 27.2531 20.7242 27.6867 21.3858 28.189C23.3255 29.6609 27.7899 32.125 27.7899 34.2278V30.7224V23.0869V19.7906C26.7901 18.5633 25.2999 17.6549 23.629 17.6549C20.6341 17.6549 18.1973 20.0917 18.1973 23.0869Z" fill="url(#paint23_linear_591_2955)"/>
</g>
</g>
</g>
<defs>
<linearGradient id="paint0_linear_591_2955" x1="27.2208" y1="28.3983" x2="52.2746" y2="28.3983" gradientUnits="userSpaceOnUse">
<stop stop-color="white"/>
<stop offset="1" stop-color="white" stop-opacity="0.500008"/>
</linearGradient>
<linearGradient id="paint1_linear_591_2955" x1="27.2205" y1="28.3989" x2="52.2743" y2="28.3989" gradientUnits="userSpaceOnUse">
<stop stop-color="#32936F"/>
<stop offset="1" stop-color="#32936F"/>
</linearGradient>
<linearGradient id="paint2_linear_591_2955" x1="28.0631" y1="28.398" x2="2.81093" y2="28.398" gradientUnits="userSpaceOnUse">
<stop stop-color="white" stop-opacity="0.500008"/>
<stop offset="1" stop-color="white"/>
</linearGradient>
<linearGradient id="paint3_linear_591_2955" x1="28.0632" y1="28.3987" x2="2.81104" y2="28.3987" gradientUnits="userSpaceOnUse">
<stop stop-color="#F0DA5F"/>
<stop offset="1" stop-color="#F0DA5F"/>
</linearGradient>
<linearGradient id="paint4_linear_591_2955" x1="27.7886" y1="20.9571" x2="47.855" y2="20.9571" gradientUnits="userSpaceOnUse">
<stop stop-color="white"/>
<stop offset="1" stop-color="white" stop-opacity="0.500008"/>
</linearGradient>
<linearGradient id="paint5_linear_591_2955" x1="27.7881" y1="20.9571" x2="47.8545" y2="20.9571" gradientUnits="userSpaceOnUse">
<stop stop-color="#E8632A"/>
<stop offset="1" stop-color="#E8632A"/>
</linearGradient>
<linearGradient id="paint6_linear_591_2955" x1="27.6409" y1="20.959" x2="7.98361" y2="20.959" gradientUnits="userSpaceOnUse">
<stop stop-color="white"/>
<stop offset="0.998037" stop-color="white" stop-opacity="0.500008"/>
<stop offset="1" stop-color="white" stop-opacity="0.500008"/>
</linearGradient>
<linearGradient id="paint7_linear_591_2955" x1="27.6405" y1="20.9597" x2="7.98319" y2="20.9597" gradientUnits="userSpaceOnUse">
<stop stop-color="#64C1DA"/>
<stop offset="0.998037" stop-color="#64C1DA"/>
<stop offset="1" stop-color="#64C1DA"/>
</linearGradient>
<linearGradient id="paint8_linear_591_2955" x1="27.7901" y1="25.94" x2="37.3828" y2="25.94" gradientUnits="userSpaceOnUse">
<stop stop-color="white" stop-opacity="0.6"/>
<stop offset="1" stop-color="white"/>
</linearGradient>
<linearGradient id="paint9_linear_591_2955" x1="27.7892" y1="25.9417" x2="37.3818" y2="25.9417" gradientUnits="userSpaceOnUse">
<stop stop-color="#E8632A"/>
<stop offset="1" stop-color="#E8632A"/>
</linearGradient>
<linearGradient id="paint10_linear_591_2955" x1="28.0974" y1="25.94" x2="18.0422" y2="25.94" gradientUnits="userSpaceOnUse">
<stop stop-color="white" stop-opacity="0.6"/>
<stop offset="1" stop-color="white"/>
</linearGradient>
<linearGradient id="paint11_linear_591_2955" x1="28.097" y1="25.9414" x2="18.0418" y2="25.9414" gradientUnits="userSpaceOnUse">
<stop stop-color="#F7BFBF"/>
<stop offset="1" stop-color="#F7BFBF"/>
</linearGradient>
<linearGradient id="paint12_linear_591_2955" x1="27.2302" y1="28.3969" x2="52.2839" y2="28.3969" gradientUnits="userSpaceOnUse">
<stop stop-color="white"/>
<stop offset="1" stop-color="white" stop-opacity="0.500008"/>
</linearGradient>
<linearGradient id="paint13_linear_591_2955" x1="27.2293" y1="28.398" x2="52.283" y2="28.398" gradientUnits="userSpaceOnUse">
<stop stop-color="#32936F"/>
<stop offset="1" stop-color="#32936F"/>
</linearGradient>
<linearGradient id="paint14_linear_591_2955" x1="28.0598" y1="28.3964" x2="2.80759" y2="28.3964" gradientUnits="userSpaceOnUse">
<stop stop-color="white" stop-opacity="0.500008"/>
<stop offset="1" stop-color="white"/>
</linearGradient>
<linearGradient id="paint15_linear_591_2955" x1="28.0582" y1="28.398" x2="2.80601" y2="28.398" gradientUnits="userSpaceOnUse">
<stop stop-color="#F0DA5F"/>
<stop offset="1" stop-color="#F0DA5F"/>
</linearGradient>
<linearGradient id="paint16_linear_591_2955" x1="27.798" y1="20.956" x2="47.8643" y2="20.956" gradientUnits="userSpaceOnUse">
<stop stop-color="white"/>
<stop offset="1" stop-color="white" stop-opacity="0.500008"/>
</linearGradient>
<linearGradient id="paint17_linear_591_2955" x1="27.7969" y1="20.9574" x2="47.8633" y2="20.9574" gradientUnits="userSpaceOnUse">
<stop stop-color="#E8632A"/>
<stop offset="1" stop-color="#E8632A"/>
</linearGradient>
<linearGradient id="paint18_linear_591_2955" x1="27.64" y1="20.9592" x2="7.98267" y2="20.9592" gradientUnits="userSpaceOnUse">
<stop stop-color="white"/>
<stop offset="0.998037" stop-color="white" stop-opacity="0.500008"/>
<stop offset="1" stop-color="white" stop-opacity="0.500008"/>
</linearGradient>
<linearGradient id="paint19_linear_591_2955" x1="27.6404" y1="20.9612" x2="7.98303" y2="20.9612" gradientUnits="userSpaceOnUse">
<stop stop-color="#64C1DA"/>
<stop offset="0.998037" stop-color="#64C1DA"/>
<stop offset="1" stop-color="#64C1DA"/>
</linearGradient>
<linearGradient id="paint20_linear_591_2955" x1="27.7926" y1="25.9399" x2="37.3852" y2="25.9399" gradientUnits="userSpaceOnUse">
<stop stop-color="white" stop-opacity="0.6"/>
<stop offset="1" stop-color="white"/>
</linearGradient>
<linearGradient id="paint21_linear_591_2955" x1="27.7902" y1="25.9418" x2="37.3828" y2="25.9418" gradientUnits="userSpaceOnUse">
<stop stop-color="#E8632A"/>
<stop offset="1" stop-color="#E8632A"/>
</linearGradient>
<linearGradient id="paint22_linear_591_2955" x1="28.0969" y1="25.94" x2="18.0417" y2="25.94" gradientUnits="userSpaceOnUse">
<stop stop-color="white" stop-opacity="0.6"/>
<stop offset="1" stop-color="white"/>
</linearGradient>
<linearGradient id="paint23_linear_591_2955" x1="28.096" y1="25.9413" x2="18.0408" y2="25.9413" gradientUnits="userSpaceOnUse">
<stop stop-color="#F7BFBF"/>
<stop offset="1" stop-color="#F7BFBF"/>
</linearGradient>
<clipPath id="clip0_591_2955">
<rect width="102.615" height="46" fill="white"/>
</clipPath>
</defs>
</svg>
