<svg width="216" height="112" viewBox="0 0 216 112" fill="none" xmlns="http://www.w3.org/2000/svg">
<g clip-path="url(#clip0_315_898)">
<mask id="mask0_315_898" style="mask-type:luminance" maskUnits="userSpaceOnUse" x="-72" y="-34" width="361" height="181">
<path d="M-71.4189 -33.7086H288.503V146.253H-71.4189V-33.7086Z" fill="white"/>
</mask>
<g mask="url(#mask0_315_898)">
<path d="M202.198 112.219H14.6238C6.98153 112.219 0.786133 106.023 0.786133 98.3806V14.0047C0.786133 6.36221 6.98153 0.166817 14.6238 0.166817H202.198C209.841 0.166817 216.036 6.36221 216.036 14.0047V98.3806C216.036 106.023 209.841 112.219 202.198 112.219Z" fill="white"/>
<mask id="mask1_315_898" style="mask-type:luminance" maskUnits="userSpaceOnUse" x="121" y="39" width="66" height="29">
<path d="M121.371 39.8026H186.68V67.5094H121.371V39.8026Z" fill="white"/>
</mask>
<g mask="url(#mask1_315_898)">
<path d="M136.428 57.2645C136.428 54.3543 134.488 52.5307 131.81 52.5307C129.132 52.5307 127.192 54.3543 127.192 57.2645C127.192 60.1752 129.132 61.9991 131.81 61.9991C134.488 61.9991 136.428 60.1752 136.428 57.2645ZM142.249 57.2645C142.249 63.0467 138.058 67.5093 132.974 67.5093C130.374 67.5093 128.473 66.6169 127.192 65.1426V66.9662H121.371V39.8025H127.192V49.3872C128.473 47.9129 130.374 47.02 132.974 47.02C138.058 47.02 142.249 51.4828 142.249 57.2645Z" fill="#616161"/>
<path d="M158.972 55.2472C158.351 52.9963 156.605 52.1813 154.858 52.1813C152.647 52.1813 151.172 53.2678 150.628 55.2472H158.972ZM155.402 62.3095C156.993 62.3095 158.351 61.6887 159.127 60.835L163.784 63.5126C161.882 66.1512 159.011 67.5093 155.324 67.5093C148.688 67.5093 144.575 63.0467 144.575 57.2645C144.575 51.4831 148.766 47.02 154.897 47.02C160.563 47.02 164.754 51.4052 164.754 57.2645C164.754 58.0795 164.676 58.8558 164.521 59.5935H150.745C151.482 61.6111 153.268 62.3095 155.402 62.3095Z" fill="#616161"/>
<path d="M180.083 66.9661L173.874 58.39V66.9661H168.053V39.8023H173.874V56.0615L179.694 47.5633H186.486L179.423 57.2644L186.679 66.9661H180.083Z" fill="#616161"/>
</g>
<mask id="mask2_315_898" style="mask-type:luminance" maskUnits="userSpaceOnUse" x="121" y="71" width="60" height="15">
<path d="M121.312 71.4626H180.517V85.3732H121.312V71.4626Z" fill="white"/>
</mask>
<g mask="url(#mask2_315_898)">
<path d="M125.695 77.4156H124.504V75.2824L123.578 76.721H123.429L122.503 75.2824V77.4156H121.312V73.2813H122.503L123.504 74.8438L124.504 73.2813H125.695V77.4156Z" fill="#616161"/>
<path d="M131.816 77.4156H130.575V73.2813H131.816V77.4156ZM128.954 75.9688C128.954 75.7537 128.797 75.5965 128.549 75.5965H127.847V76.3408H128.549C128.797 76.3408 128.954 76.1838 128.954 75.9688ZM130.162 75.9688C130.162 76.8368 129.542 77.4156 128.541 77.4156H126.606V73.2813H127.847V74.5214H128.541C129.542 74.5214 130.162 75.1002 130.162 75.9688Z" fill="#616161"/>
<path d="M138.391 77.4158H137.15V74.4718H136.257V75.7044C136.257 76.9526 135.629 77.5564 134.422 77.4158V76.2582C134.81 76.3738 135.017 76.1342 135.017 75.6214V73.2814H138.391V77.4158Z" fill="#616161"/>
<path d="M144.097 75.3485C144.097 74.7614 143.684 74.3725 143.146 74.3725C142.609 74.3725 142.196 74.7614 142.196 75.3485C142.196 75.9354 142.609 76.3242 143.146 76.3242C143.684 76.3242 144.097 75.9354 144.097 75.3485ZM145.338 75.3485C145.338 76.5806 144.362 77.5312 143.146 77.5312C142.13 77.5312 141.302 76.8701 141.063 75.9273H140.542V77.4156H139.302V73.2815H140.542V74.7697H141.063C141.302 73.8267 142.13 73.1656 143.146 73.1656C144.362 73.1656 145.338 74.1165 145.338 75.3485Z" fill="#616161"/>
<path d="M148.91 75.5967C148.91 75.1171 148.53 74.7614 148.009 74.7614C147.579 74.7614 147.132 75.0507 147.132 75.5636C147.132 76.0682 147.529 76.4153 148.033 76.4153C148.546 76.4153 148.91 76.0682 148.91 75.5967ZM145.834 75.2827C145.834 73.9514 146.09 73.2484 147.413 72.5949C148.298 72.157 148.662 72.0494 148.902 71.4623L149.927 72.0494C149.762 72.7439 149.249 73.05 148.372 73.3805C147.637 73.6533 147.422 73.8931 147.306 74.1826C147.603 73.9181 148.009 73.7942 148.438 73.7942C149.199 73.7942 150.15 74.4222 150.15 75.5967C150.15 76.7131 149.34 77.5315 148.042 77.5315C146.669 77.5315 145.834 76.5561 145.834 75.2827Z" fill="#616161"/>
<path d="M154.617 73.2814V77.4158H153.409V75.3485L151.64 77.4158H150.73V73.2814H151.938V75.3485L153.707 73.2814H154.617Z" fill="#616161"/>
<path d="M159.91 77.4158H158.719V75.2826L157.793 76.7211H157.644L156.718 75.2826V77.4158H155.527V73.2814H156.718L157.718 74.8439L158.719 73.2814H159.91V77.4158Z" fill="#616161"/>
<path d="M123.744 82.9334C123.744 82.735 123.595 82.6439 123.38 82.6439H122.47V83.2393H123.38C123.595 83.2393 123.744 83.1403 123.744 82.9334ZM122.47 81.1225V81.7013H123.247C123.47 81.7013 123.611 81.6185 123.611 81.4201C123.611 81.2134 123.47 81.1225 123.247 81.1225H122.47ZM124.951 83.0823C124.951 83.7686 124.463 84.2646 123.545 84.2646H121.312V80.1303H123.38C124.297 80.1303 124.785 80.6263 124.785 81.3126C124.785 81.6683 124.653 81.9575 124.397 82.1479C124.752 82.3382 124.951 82.6605 124.951 83.0823Z" fill="#616161"/>
<path d="M125.366 82.1976C125.366 80.9655 126.3 80.0146 127.557 80.0146C128.359 80.0146 129.071 80.4364 129.426 81.073L128.343 81.7015C128.202 81.412 127.905 81.2384 127.541 81.2384C127.003 81.2384 126.607 81.6271 126.607 82.1976C126.607 82.7683 127.003 83.1568 127.541 83.1568C127.905 83.1568 128.21 82.9831 128.343 82.6936L129.426 83.314C129.071 83.9587 128.368 84.3805 127.557 84.3805C126.3 84.3805 125.366 83.4296 125.366 82.1976Z" fill="#616161"/>
<path d="M132.701 81.7676C132.569 81.288 132.197 81.1141 131.825 81.1141C131.354 81.1141 131.039 81.3458 130.924 81.7676H132.701ZM131.941 83.2723C132.28 83.2723 132.569 83.1404 132.734 82.9582L133.727 83.5287C133.322 84.0911 132.71 84.3804 131.924 84.3804C130.51 84.3804 129.634 83.4295 129.634 82.1974C129.634 80.9656 130.527 80.0145 131.833 80.0145C133.04 80.0145 133.934 80.9487 133.934 82.1974C133.934 82.3711 133.917 82.5364 133.884 82.6935H130.949C131.105 83.1233 131.486 83.2723 131.941 83.2723Z" fill="#616161"/>
<path d="M136.894 84.2648L136.125 83.1731L135.356 84.2648H133.934L135.414 82.1644L133.983 80.1304H135.406L136.125 81.1557L136.844 80.1304H138.267L136.836 82.1644L138.316 84.2648H136.894Z" fill="#616161"/>
<path d="M144.725 80.1303V84.2646H143.518V82.1973L141.748 84.2646H140.839V80.1303H142.046V82.1973L143.815 80.1303H144.725Z" fill="#616161"/>
<path d="M150.266 84.2646L148.943 82.4371V84.2646H147.703V80.1303H148.943V81.9411L150.183 80.1303H151.631L150.126 82.1976L151.672 84.2646H150.266Z" fill="#616161"/>
<path d="M154.882 82.1976C154.882 81.5774 154.469 81.1889 153.898 81.1889C153.328 81.1889 152.914 81.5774 152.914 82.1976C152.914 82.818 153.328 83.2062 153.898 83.2062C154.469 83.2062 154.882 82.818 154.882 82.1976ZM156.123 80.1305V84.2646H154.882V83.8764C154.609 84.1904 154.204 84.3805 153.65 84.3805C152.567 84.3805 151.674 83.4296 151.674 82.1976C151.674 80.9655 152.567 80.0146 153.65 80.0146C154.204 80.0146 154.609 80.2047 154.882 80.519V80.1305H156.123Z" fill="#616161"/>
<path d="M161.489 84.2648L160.365 82.4703V84.2648H159.157V82.4703L158.033 84.2648H156.66L158.033 82.1977L156.742 80.1304H158.115L159.157 81.8999V80.1304H160.365V81.8999L161.406 80.1304H162.779L161.489 82.1977L162.862 84.2648H161.489Z" fill="#616161"/>
<path d="M165.997 83.107V81.2383H165.079V81.6767C165.079 82.2803 164.996 82.7351 164.839 83.107H165.997ZM167.742 83.107V85.3727H166.534V84.2646H164.235V85.3727H163.028V83.107H163.541C163.747 82.7846 163.871 82.388 163.871 81.6767V80.1304H167.204V83.107H167.742Z" fill="#616161"/>
<path d="M171.132 82.1974C171.132 81.6105 170.719 81.2218 170.181 81.2218C169.644 81.2218 169.231 81.6105 169.231 82.1974C169.231 82.7846 169.644 83.1731 170.181 83.1731C170.719 83.1731 171.132 82.7846 171.132 82.1974ZM167.99 82.1974C167.99 80.9654 168.966 80.0145 170.181 80.0145C171.397 80.0145 172.373 80.9654 172.373 82.1974C172.373 83.4295 171.397 84.3804 170.181 84.3804C168.966 84.3804 167.99 83.4295 167.99 82.1974Z" fill="#616161"/>
<path d="M175.97 81.3209H174.316V84.2646H173.076V80.1303H175.97V81.3209Z" fill="#616161"/>
<path d="M179.279 82.1976C179.279 81.6107 178.865 81.2219 178.328 81.2219C177.791 81.2219 177.377 81.6107 177.377 82.1976C177.377 82.7847 177.791 83.1732 178.328 83.1732C178.865 83.1732 179.279 82.7847 179.279 82.1976ZM176.137 82.1976C176.137 80.9655 177.112 80.0146 178.328 80.0146C179.544 80.0146 180.519 80.9655 180.519 82.1976C180.519 83.4296 179.544 84.3805 178.328 84.3805C177.112 84.3805 176.137 83.4296 176.137 82.1976Z" fill="#616161"/>
</g>
<mask id="mask3_315_898" style="mask-type:luminance" maskUnits="userSpaceOnUse" x="71" y="36" width="39" height="56">
<path d="M71.6553 36.811H109.782V91.9777H71.6553V36.811Z" fill="white"/>
</mask>
<g mask="url(#mask3_315_898)">
<mask id="mask4_315_898" style="mask-type:luminance" maskUnits="userSpaceOnUse" x="71" y="36" width="39" height="56">
<path d="M71.6543 86.8141V91.9777C72.4155 88.8079 77.5597 84.5066 83.0292 84.5066H109.781V36.811H83.0292C78.2182 36.811 73.9967 39.3791 71.6543 43.2082V54.6184V86.8141Z" fill="white"/>
</mask>
<g mask="url(#mask4_315_898)">
<mask id="mask5_315_898" style="mask-type:luminance" maskUnits="userSpaceOnUse" x="-7443" y="-7225" width="14743" height="14743">
<path d="M-7442.63 -7224.73H7299.56V7517.46H-7442.63V-7224.73Z" fill="url(#paint0_linear_315_898)"/>
</mask>
<g mask="url(#mask5_315_898)">
<path d="M71.6543 86.814V91.9775C72.4155 88.8077 77.5597 84.5064 83.0292 84.5064H109.781V36.8109H83.0292C78.2182 36.8109 73.9967 39.3789 71.6543 43.2081V54.6183V86.814Z" fill="url(#paint1_linear_315_898)"/>
</g>
</g>
</g>
<mask id="mask6_315_898" style="mask-type:luminance" maskUnits="userSpaceOnUse" x="33" y="36" width="39" height="56">
<path d="M33.5342 36.8106H71.6607V91.9773H33.5342V36.8106Z" fill="white"/>
</mask>
<g mask="url(#mask6_315_898)">
<mask id="mask7_315_898" style="mask-type:luminance" maskUnits="userSpaceOnUse" x="33" y="36" width="39" height="56">
<path d="M71.6619 86.8139V91.9774C70.7217 89.0099 65.7565 84.5063 60.2873 84.5063H33.5352V36.8108H60.2873C65.0981 36.8108 69.3195 39.3788 71.6619 43.2079V54.6182V86.8139Z" fill="white"/>
</mask>
<g mask="url(#mask7_315_898)">
<mask id="mask8_315_898" style="mask-type:luminance" maskUnits="userSpaceOnUse" x="-7443" y="-7225" width="14743" height="14743">
<path d="M-7442.62 -7224.73H7299.57V7517.46H-7442.62V-7224.73Z" fill="url(#paint2_linear_315_898)"/>
</mask>
<g mask="url(#mask8_315_898)">
<path d="M71.6619 86.8135V91.9771C70.7217 89.0095 65.7565 84.506 60.2873 84.506H33.5352V36.8104H60.2873C65.0981 36.8104 69.3195 39.3784 71.6619 43.2076V54.6178V86.8135Z" fill="url(#paint3_linear_315_898)"/>
</g>
</g>
</g>
<mask id="mask9_315_898" style="mask-type:luminance" maskUnits="userSpaceOnUse" x="71" y="20" width="32" height="66">
<path d="M71.6553 20.4076H102.666V85.3815H71.6553V20.4076Z" fill="white"/>
</mask>
<g mask="url(#mask9_315_898)">
<mask id="mask10_315_898" style="mask-type:luminance" maskUnits="userSpaceOnUse" x="71" y="20" width="32" height="66">
<path d="M71.6545 43.736C71.6545 43.736 71.6543 35.788 71.6543 35.4416C72.9687 31.6143 77.2522 29.8468 79.629 28.9297C83.6019 27.3969 99.89 21.4251 100.054 21.3646L102.665 20.4076V69.4567L101.344 69.9026C101.187 69.9554 85.6753 75.2823 81.8403 76.5497C76.5432 78.3 72.3348 83.0748 71.6545 85.3815V80.4481V43.736Z" fill="white"/>
</mask>
<g mask="url(#mask10_315_898)">
<mask id="mask11_315_898" style="mask-type:luminance" maskUnits="userSpaceOnUse" x="-7443" y="-7225" width="14743" height="14743">
<path d="M-7442.63 -7224.73H7299.56V7517.46H-7442.63V-7224.73Z" fill="url(#paint4_linear_315_898)"/>
</mask>
<g mask="url(#mask11_315_898)">
<path d="M71.6545 43.7354C71.6545 43.7354 71.6543 35.7874 71.6543 35.441C72.9687 31.6136 77.2522 29.8462 79.629 28.9291C83.6019 27.3963 99.89 21.4245 100.054 21.364L102.665 20.407V69.4561L101.344 69.902C101.187 69.9548 85.6753 75.2817 81.8403 76.549C76.5432 78.2994 72.3348 83.0742 71.6545 85.3809V80.4474V43.7354Z" fill="url(#paint5_linear_315_898)"/>
</g>
</g>
</g>
<mask id="mask12_315_898" style="mask-type:luminance" maskUnits="userSpaceOnUse" x="40" y="20" width="32" height="66">
<path d="M40.6465 20.4136H71.6569V85.3872H40.6465V20.4136Z" fill="white"/>
</mask>
<g mask="url(#mask12_315_898)">
<mask id="mask13_315_898" style="mask-type:luminance" maskUnits="userSpaceOnUse" x="40" y="20" width="32" height="66">
<path d="M71.6533 43.7421C71.6533 43.7421 71.6533 35.7125 71.6533 35.4479C70.7017 32.2082 66.0556 29.8529 63.6787 28.936C59.7059 27.403 43.4178 21.4312 43.2536 21.3709L40.6426 20.414V69.4631L41.9637 69.9087C42.1203 69.9615 57.6323 75.2884 61.4675 76.5558C66.7646 78.3061 70.973 83.0812 71.6533 85.3878V80.4542V43.7421Z" fill="white"/>
</mask>
<g mask="url(#mask13_315_898)">
<mask id="mask14_315_898" style="mask-type:luminance" maskUnits="userSpaceOnUse" x="-7443" y="-7225" width="14743" height="14743">
<path d="M-7442.63 -7224.74H7299.56V7517.46H-7442.63V-7224.74Z" fill="url(#paint6_linear_315_898)"/>
</mask>
<g mask="url(#mask14_315_898)">
<path d="M71.6513 43.7405C71.6513 43.7405 71.6513 35.7109 71.6513 35.4463C70.6998 32.2066 66.0536 29.8513 63.6768 28.9344C59.7039 27.4014 43.4159 21.4296 43.2516 21.3693L40.6406 20.4124V69.4615L41.9618 69.9071C42.1183 69.96 57.6303 75.2868 61.4655 76.5542C66.7627 78.3045 70.9711 83.0796 71.6513 85.3862V80.4526V43.7405Z" fill="url(#paint7_linear_315_898)"/>
</g>
</g>
</g>
</g>
<mask id="mask15_315_898" style="mask-type:luminance" maskUnits="userSpaceOnUse" x="71" y="47" width="16" height="27">
<path d="M71.6562 51.0926V56.1866V67.9866V73.4037C71.6562 70.1545 78.556 66.3463 81.5532 64.0716C82.5756 63.2953 83.4588 62.6251 84.0979 62.0398C85.6125 60.653 86.481 58.5198 86.481 56.1866C86.481 51.558 82.7151 47.7921 78.0865 47.7921C75.5043 47.7921 73.2014 49.1958 71.6562 51.0926Z" fill="white"/>
</mask>
<g mask="url(#mask15_315_898)">
<mask id="mask16_315_898" style="mask-type:luminance" maskUnits="userSpaceOnUse" x="-7443" y="-7225" width="14743" height="14743">
<path d="M-7442.63 -7224.74H7299.57V7517.46H-7442.63V-7224.74Z" fill="url(#paint8_linear_315_898)"/>
</mask>
<g mask="url(#mask16_315_898)">
<path d="M71.6562 51.0917V56.1857V67.9858V73.4028C71.6562 70.1536 78.556 66.3454 81.5532 64.0707C82.5756 63.2944 83.4588 62.6243 84.0979 62.039C85.6125 60.6521 86.481 58.5189 86.481 56.1857C86.481 51.5571 82.7151 47.7912 78.0865 47.7912C75.5043 47.7912 73.2014 49.1949 71.6562 51.0917Z" fill="url(#paint9_linear_315_898)"/>
</g>
</g>
<mask id="mask17_315_898" style="mask-type:luminance" maskUnits="userSpaceOnUse" x="56" y="47" width="16" height="27">
<path d="M56.832 56.1865C56.832 58.5197 57.7003 60.6529 59.2149 62.0397C59.8543 62.625 60.7372 63.2951 61.7594 64.0715C64.7573 66.3462 71.6566 70.1544 71.6566 73.4036V67.9865V56.1865V51.0924C70.1114 49.1956 67.8088 47.7919 65.2263 47.7919C60.5977 47.7919 56.832 51.5579 56.832 56.1865Z" fill="white"/>
</mask>
<g mask="url(#mask17_315_898)">
<mask id="mask18_315_898" style="mask-type:luminance" maskUnits="userSpaceOnUse" x="-7443" y="-7225" width="14743" height="14743">
<path d="M-7442.63 -7224.74H7299.57V7517.46H-7442.63V-7224.74Z" fill="url(#paint10_linear_315_898)"/>
</mask>
<g mask="url(#mask18_315_898)">
<path d="M56.832 56.1852C56.832 58.5184 57.7003 60.6516 59.2149 62.0385C59.8543 62.6238 60.7372 63.2939 61.7594 64.0702C64.7573 66.3449 71.6566 70.1531 71.6566 73.4023V67.9853V56.1852V51.0912C70.1114 49.1944 67.8088 47.7907 65.2263 47.7907C60.5977 47.7907 56.832 51.5566 56.832 56.1852Z" fill="url(#paint11_linear_315_898)"/>
</g>
</g>
<mask id="mask19_315_898" style="mask-type:luminance" maskUnits="userSpaceOnUse" x="-72" y="-34" width="361" height="181">
<path d="M-71.4189 -33.7086H288.503V146.253H-71.4189V-33.7086Z" fill="white"/>
</mask>
<g mask="url(#mask19_315_898)">
<mask id="mask20_315_898" style="mask-type:luminance" maskUnits="userSpaceOnUse" x="71" y="36" width="39" height="56">
<path d="M71.6611 36.8102H109.788V91.9768H71.6611V36.8102Z" fill="white"/>
</mask>
<g mask="url(#mask20_315_898)">
<mask id="mask21_315_898" style="mask-type:luminance" maskUnits="userSpaceOnUse" x="71" y="36" width="39" height="56">
<path d="M71.6621 86.8131V91.9767C72.4233 88.8069 77.5675 84.5056 83.037 84.5056H109.789V36.81H83.037C78.226 36.81 74.0045 39.3781 71.6621 43.2074V54.6174V86.8131Z" fill="white"/>
</mask>
<g mask="url(#mask21_315_898)">
<mask id="mask22_315_898" style="mask-type:luminance" maskUnits="userSpaceOnUse" x="-7443" y="-7225" width="14743" height="14743">
<path d="M-7442.62 -7224.74H7299.57V7517.46H-7442.62V-7224.74Z" fill="url(#paint12_linear_315_898)"/>
</mask>
<g mask="url(#mask22_315_898)">
<path d="M71.6631 86.8125V91.9761C72.4243 88.8063 77.5685 84.505 83.038 84.505H109.79V36.8094H83.038C78.2269 36.8094 74.0055 39.3775 71.6631 43.2068V54.6168V86.8125Z" fill="url(#paint13_linear_315_898)"/>
</g>
</g>
</g>
<mask id="mask23_315_898" style="mask-type:luminance" maskUnits="userSpaceOnUse" x="33" y="36" width="39" height="56">
<path d="M33.5371 36.8102H71.6639V91.9768H33.5371V36.8102Z" fill="white"/>
</mask>
<g mask="url(#mask23_315_898)">
<mask id="mask24_315_898" style="mask-type:luminance" maskUnits="userSpaceOnUse" x="33" y="36" width="39" height="56">
<path d="M71.6598 86.8131V91.9767C70.7197 89.0091 65.7543 84.5056 60.2849 84.5056H33.5332V36.81H60.2849C65.0959 36.81 69.3174 39.3781 71.6598 43.2074V54.6174V86.8131Z" fill="white"/>
</mask>
<g mask="url(#mask24_315_898)">
<mask id="mask25_315_898" style="mask-type:luminance" maskUnits="userSpaceOnUse" x="-7443" y="-7225" width="14743" height="14743">
<path d="M-7442.63 -7224.74H7299.56V7517.46H-7442.63V-7224.74Z" fill="url(#paint14_linear_315_898)"/>
</mask>
<g mask="url(#mask25_315_898)">
<path d="M71.6598 86.8125V91.9761C70.7197 89.0085 65.7543 84.505 60.2849 84.505H33.5332V36.8094H60.2849C65.0959 36.8094 69.3174 39.3775 71.6598 43.2068V54.6168V86.8125Z" fill="url(#paint15_linear_315_898)"/>
</g>
</g>
</g>
<mask id="mask26_315_898" style="mask-type:luminance" maskUnits="userSpaceOnUse" x="71" y="20" width="32" height="66">
<path d="M71.6602 20.4072H102.671V85.3811H71.6602V20.4072Z" fill="white"/>
</mask>
<g mask="url(#mask26_315_898)">
<mask id="mask27_315_898" style="mask-type:luminance" maskUnits="userSpaceOnUse" x="71" y="20" width="32" height="66">
<path d="M71.6604 43.7357C71.6604 43.7357 71.6602 35.7878 71.6602 35.4416C72.9745 31.614 77.2581 29.8466 79.6349 28.9294C83.6076 27.3966 99.8958 21.4248 100.06 21.3643L102.671 20.4074V69.4565L101.35 69.9023C101.193 69.9552 85.6812 75.2823 81.8462 76.5494C76.549 78.2998 72.3406 83.0746 71.6604 85.3812V80.4478V43.7357Z" fill="white"/>
</mask>
<g mask="url(#mask27_315_898)">
<mask id="mask28_315_898" style="mask-type:luminance" maskUnits="userSpaceOnUse" x="-7443" y="-7225" width="14743" height="14743">
<path d="M-7442.63 -7224.73H7299.57V7517.46H-7442.63V-7224.73Z" fill="url(#paint16_linear_315_898)"/>
</mask>
<g mask="url(#mask28_315_898)">
<path d="M71.6614 43.7354C71.6614 43.7354 71.6611 35.7874 71.6611 35.4412C72.9755 31.6136 77.259 29.8462 79.6359 28.9291C83.6085 27.3963 99.8968 21.4245 100.061 21.364L102.672 20.407V69.4561L101.351 69.9019C101.194 69.9548 85.6821 75.2819 81.8472 76.549C76.55 78.2994 72.3416 83.0742 71.6614 85.3809V80.4474V43.7354Z" fill="url(#paint17_linear_315_898)"/>
</g>
</g>
</g>
<mask id="mask29_315_898" style="mask-type:luminance" maskUnits="userSpaceOnUse" x="40" y="20" width="32" height="66">
<path d="M40.6494 20.4132H71.6601V85.3868H40.6494V20.4132Z" fill="white"/>
</mask>
<g mask="url(#mask29_315_898)">
<mask id="mask30_315_898" style="mask-type:luminance" maskUnits="userSpaceOnUse" x="40" y="20" width="32" height="66">
<path d="M71.6599 43.7413C71.6599 43.7413 71.6599 35.7116 71.6599 35.4471C70.7083 32.2073 66.0619 29.8523 63.6853 28.9352C59.7125 27.4021 43.4244 21.4303 43.2602 21.3701L40.6494 20.4131V69.4622L41.9703 69.9078C42.1269 69.9609 57.6389 75.2878 61.4741 76.5549C66.7712 78.3053 70.9796 83.0803 71.6599 85.387V80.4533V43.7413Z" fill="white"/>
</mask>
<g mask="url(#mask30_315_898)">
<mask id="mask31_315_898" style="mask-type:luminance" maskUnits="userSpaceOnUse" x="-7443" y="-7225" width="14743" height="14743">
<path d="M-7442.63 -7224.74H7299.57V7517.46H-7442.63V-7224.74Z" fill="url(#paint18_linear_315_898)"/>
</mask>
<g mask="url(#mask31_315_898)">
<path d="M71.6599 43.741C71.6599 43.741 71.6599 35.7114 71.6599 35.4468C70.7083 32.2071 66.0619 29.8521 63.6853 28.9349C59.7125 27.4019 43.4244 21.4301 43.2602 21.3698L40.6494 20.4129V69.462L41.9703 69.9076C42.1269 69.9607 57.6389 75.2875 61.4741 76.5547C66.7712 78.305 70.9796 83.0801 71.6599 85.3867V80.4531V43.741Z" fill="url(#paint19_linear_315_898)"/>
</g>
</g>
</g>
</g>
<mask id="mask32_315_898" style="mask-type:luminance" maskUnits="userSpaceOnUse" x="71" y="47" width="16" height="27">
<path d="M71.6592 51.0923V56.1866V67.9864V73.4037C71.6592 70.154 78.5587 66.3461 81.5564 64.0714C82.5786 63.295 83.4617 62.6249 84.1008 62.0396C85.6154 60.6528 86.4839 58.5196 86.4839 56.1866C86.4839 51.5578 82.718 47.7918 78.0894 47.7918C75.5072 47.7918 73.2044 49.1958 71.6592 51.0923Z" fill="white"/>
</mask>
<g mask="url(#mask32_315_898)">
<mask id="mask33_315_898" style="mask-type:luminance" maskUnits="userSpaceOnUse" x="-7443" y="-7225" width="14743" height="14743">
<path d="M-7442.63 -7224.74H7299.57V7517.46H-7442.63V-7224.74Z" fill="url(#paint20_linear_315_898)"/>
</mask>
<g mask="url(#mask33_315_898)">
<path d="M71.6582 51.0915V56.1857V67.9856V73.4028C71.6582 70.1532 78.5577 66.3452 81.5554 64.0705C82.5776 63.2942 83.4607 62.6241 84.0998 62.0387C85.6144 60.6519 86.483 58.5187 86.483 56.1857C86.483 51.5569 82.717 47.791 78.0884 47.791C75.5062 47.791 73.2034 49.1949 71.6582 51.0915Z" fill="url(#paint21_linear_315_898)"/>
</g>
</g>
<mask id="mask34_315_898" style="mask-type:luminance" maskUnits="userSpaceOnUse" x="56" y="47" width="16" height="27">
<path d="M56.832 56.1865C56.832 58.5194 57.7003 60.6526 59.2152 62.0395C59.8543 62.6248 60.7372 63.2949 61.7596 64.0712C64.7573 66.3459 71.6566 70.1539 71.6566 73.4036V67.9863V56.1865V51.0922C70.1114 49.1956 67.8085 47.7917 65.2263 47.7917C60.598 47.7917 56.832 51.5576 56.832 56.1865Z" fill="white"/>
</mask>
<g mask="url(#mask34_315_898)">
<mask id="mask35_315_898" style="mask-type:luminance" maskUnits="userSpaceOnUse" x="-7443" y="-7225" width="14743" height="14743">
<path d="M-7442.63 -7224.74H7299.56V7517.46H-7442.63V-7224.74Z" fill="url(#paint22_linear_315_898)"/>
</mask>
<g mask="url(#mask35_315_898)">
<path d="M56.8301 56.1852C56.8301 58.5182 57.6984 60.6514 59.2132 62.0383C59.8523 62.6236 60.7352 63.2937 61.7576 64.07C64.7553 66.3447 71.6546 70.1527 71.6546 73.4023V67.9851V56.1852V51.091C70.1094 49.1944 67.8066 47.7905 65.2244 47.7905C60.596 47.7905 56.8301 51.5564 56.8301 56.1852Z" fill="url(#paint23_linear_315_898)"/>
</g>
</g>
</g>
<defs>
<linearGradient id="paint0_linear_315_898" x1="70.777" y1="64.3935" x2="109.495" y2="64.3935" gradientUnits="userSpaceOnUse">
<stop stop-color="white"/>
<stop offset="1" stop-color="white" stop-opacity="0.500008"/>
</linearGradient>
<linearGradient id="paint1_linear_315_898" x1="70.7771" y1="64.3942" x2="109.495" y2="64.3942" gradientUnits="userSpaceOnUse">
<stop stop-color="#32936F"/>
<stop offset="1" stop-color="#32936F"/>
</linearGradient>
<linearGradient id="paint2_linear_315_898" x1="72.0795" y1="64.3928" x2="33.0546" y2="64.3928" gradientUnits="userSpaceOnUse">
<stop stop-color="white" stop-opacity="0.500008"/>
<stop offset="1" stop-color="white"/>
</linearGradient>
<linearGradient id="paint3_linear_315_898" x1="72.0779" y1="64.3937" x2="33.053" y2="64.3937" gradientUnits="userSpaceOnUse">
<stop stop-color="#F0DA5F"/>
<stop offset="1" stop-color="#F0DA5F"/>
</linearGradient>
<linearGradient id="paint4_linear_315_898" x1="71.6545" y1="52.8936" x2="102.665" y2="52.8936" gradientUnits="userSpaceOnUse">
<stop stop-color="white"/>
<stop offset="1" stop-color="white" stop-opacity="0.500008"/>
</linearGradient>
<linearGradient id="paint5_linear_315_898" x1="71.6544" y1="52.8939" x2="102.665" y2="52.8939" gradientUnits="userSpaceOnUse">
<stop stop-color="#E8632A"/>
<stop offset="1" stop-color="#E8632A"/>
</linearGradient>
<linearGradient id="paint6_linear_315_898" x1="71.4223" y1="52.8969" x2="41.0438" y2="52.8969" gradientUnits="userSpaceOnUse">
<stop stop-color="white"/>
<stop offset="0.998037" stop-color="white" stop-opacity="0.500008"/>
<stop offset="1" stop-color="white" stop-opacity="0.500008"/>
</linearGradient>
<linearGradient id="paint7_linear_315_898" x1="71.4218" y1="52.8992" x2="41.0432" y2="52.8992" gradientUnits="userSpaceOnUse">
<stop stop-color="#64C1DA"/>
<stop offset="0.998037" stop-color="#64C1DA"/>
<stop offset="1" stop-color="#64C1DA"/>
</linearGradient>
<linearGradient id="paint8_linear_315_898" x1="71.6565" y1="60.5944" x2="86.481" y2="60.5944" gradientUnits="userSpaceOnUse">
<stop stop-color="white" stop-opacity="0.6"/>
<stop offset="1" stop-color="white"/>
</linearGradient>
<linearGradient id="paint9_linear_315_898" x1="71.6564" y1="60.5971" x2="86.4809" y2="60.5971" gradientUnits="userSpaceOnUse">
<stop stop-color="#E8632A"/>
<stop offset="1" stop-color="#E8632A"/>
</linearGradient>
<linearGradient id="paint10_linear_315_898" x1="72.1302" y1="60.5936" x2="56.5909" y2="60.5936" gradientUnits="userSpaceOnUse">
<stop stop-color="white" stop-opacity="0.6"/>
<stop offset="1" stop-color="white"/>
</linearGradient>
<linearGradient id="paint11_linear_315_898" x1="72.1296" y1="60.5966" x2="56.5902" y2="60.5966" gradientUnits="userSpaceOnUse">
<stop stop-color="#F7BFBF"/>
<stop offset="1" stop-color="#F7BFBF"/>
</linearGradient>
<linearGradient id="paint12_linear_315_898" x1="70.7852" y1="64.3906" x2="109.503" y2="64.3906" gradientUnits="userSpaceOnUse">
<stop stop-color="white"/>
<stop offset="1" stop-color="white" stop-opacity="0.500008"/>
</linearGradient>
<linearGradient id="paint13_linear_315_898" x1="70.7859" y1="64.3928" x2="109.504" y2="64.3928" gradientUnits="userSpaceOnUse">
<stop stop-color="#32936F"/>
<stop offset="1" stop-color="#32936F"/>
</linearGradient>
<linearGradient id="paint14_linear_315_898" x1="72.076" y1="64.3898" x2="33.0512" y2="64.3898" gradientUnits="userSpaceOnUse">
<stop stop-color="white" stop-opacity="0.500008"/>
<stop offset="1" stop-color="white"/>
</linearGradient>
<linearGradient id="paint15_linear_315_898" x1="72.0757" y1="64.3928" x2="33.0508" y2="64.3928" gradientUnits="userSpaceOnUse">
<stop stop-color="#F0DA5F"/>
<stop offset="1" stop-color="#F0DA5F"/>
</linearGradient>
<linearGradient id="paint16_linear_315_898" x1="71.6607" y1="52.8917" x2="102.671" y2="52.8917" gradientUnits="userSpaceOnUse">
<stop stop-color="white"/>
<stop offset="1" stop-color="white" stop-opacity="0.500008"/>
</linearGradient>
<linearGradient id="paint17_linear_315_898" x1="71.6612" y1="52.894" x2="102.672" y2="52.894" gradientUnits="userSpaceOnUse">
<stop stop-color="#E8632A"/>
<stop offset="1" stop-color="#E8632A"/>
</linearGradient>
<linearGradient id="paint18_linear_315_898" x1="71.43" y1="52.8969" x2="41.0515" y2="52.8969" gradientUnits="userSpaceOnUse">
<stop stop-color="white"/>
<stop offset="0.998037" stop-color="white" stop-opacity="0.500008"/>
<stop offset="1" stop-color="white" stop-opacity="0.500008"/>
</linearGradient>
<linearGradient id="paint19_linear_315_898" x1="71.4303" y1="52.8997" x2="41.0518" y2="52.8997" gradientUnits="userSpaceOnUse">
<stop stop-color="#64C1DA"/>
<stop offset="0.998037" stop-color="#64C1DA"/>
<stop offset="1" stop-color="#64C1DA"/>
</linearGradient>
<linearGradient id="paint20_linear_315_898" x1="71.6607" y1="60.594" x2="86.4852" y2="60.594" gradientUnits="userSpaceOnUse">
<stop stop-color="white" stop-opacity="0.6"/>
<stop offset="1" stop-color="white"/>
</linearGradient>
<linearGradient id="paint21_linear_315_898" x1="71.6584" y1="60.5969" x2="86.4829" y2="60.5969" gradientUnits="userSpaceOnUse">
<stop stop-color="#E8632A"/>
<stop offset="1" stop-color="#E8632A"/>
</linearGradient>
<linearGradient id="paint22_linear_315_898" x1="72.1292" y1="60.5936" x2="56.5898" y2="60.5936" gradientUnits="userSpaceOnUse">
<stop stop-color="white" stop-opacity="0.6"/>
<stop offset="1" stop-color="white"/>
</linearGradient>
<linearGradient id="paint23_linear_315_898" x1="72.1276" y1="60.5964" x2="56.5882" y2="60.5964" gradientUnits="userSpaceOnUse">
<stop stop-color="#F7BFBF"/>
<stop offset="1" stop-color="#F7BFBF"/>
</linearGradient>
<clipPath id="clip0_315_898">
<rect width="216" height="112" fill="white"/>
</clipPath>
</defs>
</svg>
