<svg width="119" height="54" viewBox="0 0 119 54" fill="none" xmlns="http://www.w3.org/2000/svg">
<g clip-path="url(#clip0_585_2316)">
<mask id="mask0_585_2316" style="mask-type:luminance" maskUnits="userSpaceOnUse" x="-76" y="-41" width="271" height="136">
<path d="M-75.1357 -40.6823H194.95V94.3604H-75.1357V-40.6823Z" fill="white"/>
</mask>
<g mask="url(#mask0_585_2316)">
<mask id="mask1_585_2316" style="mask-type:luminance" maskUnits="userSpaceOnUse" x="69" y="14" width="50" height="22">
<path d="M69.5332 14.4793H118.541V35.2705H69.5332V14.4793Z" fill="white"/>
</mask>
<g mask="url(#mask1_585_2316)">
<path d="M80.8316 27.5829C80.8316 25.3991 79.3758 24.0306 77.3665 24.0306C75.3571 24.0306 73.9012 25.3991 73.9012 27.5829C73.9012 29.767 75.3571 31.1357 77.3665 31.1357C79.3758 31.1357 80.8316 29.767 80.8316 27.5829ZM85.1997 27.5829C85.1997 31.9218 82.0547 35.2705 78.2401 35.2705C76.2891 35.2705 74.8622 34.6009 73.9012 33.4945V34.863H69.5332V14.4793H73.9012V21.6717C74.8622 20.5654 76.2891 19.8954 78.2401 19.8954C82.0547 19.8954 85.1997 23.2443 85.1997 27.5829Z" fill="white"/>
<path d="M97.7486 26.069C97.2827 24.38 95.9722 23.7684 94.6618 23.7684C93.0021 23.7684 91.8955 24.5837 91.4876 26.069H97.7486ZM95.0697 31.3686C96.2636 31.3686 97.2827 30.9027 97.865 30.2621L101.359 32.2714C99.9325 34.2514 97.7776 35.2705 95.0112 35.2705C90.0319 35.2705 86.9453 31.9218 86.9453 27.5829C86.9453 23.2444 90.09 19.8954 94.691 19.8954C98.9423 19.8954 102.087 23.186 102.087 27.5829C102.087 28.1944 102.029 28.777 101.913 29.3305H91.5753C92.1284 30.8445 93.4682 31.3686 95.0697 31.3686Z" fill="white"/>
<path d="M113.591 34.8628L108.931 28.4273V34.8628H104.563V14.4791H108.931V26.68L113.299 20.303H118.396L113.095 27.5826L118.541 34.8628H113.591Z" fill="white"/>
</g>
<mask id="mask2_585_2316" style="mask-type:luminance" maskUnits="userSpaceOnUse" x="69" y="38" width="45" height="11">
<path d="M69.4902 38.2383H113.917V48.6768H69.4902V38.2383Z" fill="white"/>
</mask>
<g mask="url(#mask2_585_2316)">
<path d="M72.7785 42.7051H71.8852V41.1043L71.1901 42.1838H71.0787L70.3835 41.1043V42.7051H69.4902V39.6026H70.3835L71.1344 40.7751L71.8852 39.6026H72.7785V42.7051Z" fill="white"/>
<path d="M77.3709 42.7051H76.4403V39.6026H77.3709V42.7051ZM75.2239 41.6193C75.2239 41.458 75.1061 41.34 74.9199 41.34H74.3925V41.8985H74.9199C75.1061 41.8985 75.2239 41.7807 75.2239 41.6193ZM76.1299 41.6193C76.1299 42.2707 75.6645 42.7051 74.9136 42.7051H73.4619V39.6026H74.3925V40.5333H74.9136C75.6645 40.5333 76.1299 40.9676 76.1299 41.6193Z" fill="white"/>
<path d="M82.3065 42.7052H81.3755V40.4961H80.7056V41.4209C80.7056 42.3576 80.2339 42.8107 79.3281 42.7052V41.8365C79.6196 41.9233 79.7749 41.7435 79.7749 41.3587V39.6028H82.3065V42.7052Z" fill="white"/>
<path d="M86.587 41.1541C86.587 40.7135 86.2767 40.4217 85.8733 40.4217C85.4702 40.4217 85.1599 40.7135 85.1599 41.1541C85.1599 41.5945 85.4702 41.8862 85.8733 41.8862C86.2767 41.8862 86.587 41.5945 86.587 41.1541ZM87.518 41.1541C87.518 42.0786 86.7857 42.792 85.8733 42.792C85.1103 42.792 84.4896 42.2959 84.3098 41.5884H83.9189V42.7052H82.9883V39.603H83.9189V40.7198H84.3098C84.4896 40.0121 85.1103 39.516 85.8733 39.516C86.7857 39.516 87.518 40.2296 87.518 41.1541Z" fill="white"/>
<path d="M90.1998 41.3406C90.1998 40.9807 89.9145 40.7138 89.5234 40.7138C89.2008 40.7138 88.8658 40.9309 88.8658 41.3158C88.8658 41.6944 89.1635 41.9549 89.542 41.9549C89.9269 41.9549 90.1998 41.6944 90.1998 41.3406ZM87.8916 41.105C87.8916 40.106 88.084 39.5785 89.0768 39.0881C89.7405 38.7594 90.0135 38.6787 90.1936 38.2382L90.963 38.6787C90.8389 39.1998 90.4542 39.4296 89.7964 39.6776C89.2442 39.8823 89.083 40.0623 88.9961 40.2795C89.2192 40.081 89.5234 39.988 89.846 39.988C90.4169 39.988 91.1304 40.4593 91.1304 41.3406C91.1304 42.1784 90.5224 42.7925 89.5482 42.7925C88.518 42.7925 87.8916 42.0605 87.8916 41.105Z" fill="white"/>
<path d="M94.4827 39.6026V42.7051H93.5767V41.1538L92.2489 42.7051H91.5664V39.6026H92.4722V41.1538L93.8 39.6026H94.4827Z" fill="white"/>
<path d="M98.4545 42.7051H97.561V41.1043L96.866 42.1838H96.7545L96.0595 41.1043V42.7051H95.166V39.6026H96.0595L96.8102 40.7751L97.561 39.6026H98.4545V42.7051Z" fill="white"/>
<path d="M71.3145 46.8453C71.3145 46.6964 71.2027 46.628 71.0415 46.628H70.3587V47.0748H71.0415C71.2027 47.0748 71.3145 47.0006 71.3145 46.8453ZM70.3587 45.4864V45.9207H70.9421C71.1096 45.9207 71.2151 45.8586 71.2151 45.7097C71.2151 45.5546 71.1096 45.4864 70.9421 45.4864H70.3587ZM72.2203 46.957C72.2203 47.472 71.8542 47.8442 71.1654 47.8442H69.4902V44.7418H71.0415C71.7301 44.7418 72.0962 45.114 72.0962 45.629C72.0962 45.8959 71.997 46.113 71.8045 46.2558C72.0714 46.3986 72.2203 46.6405 72.2203 46.957Z" fill="white"/>
<path d="M72.5312 46.2936C72.5312 45.369 73.2323 44.6555 74.1754 44.6555C74.7773 44.6555 75.3111 44.972 75.5778 45.4497L74.7649 45.9214C74.6594 45.7041 74.4362 45.5738 74.1632 45.5738C73.7598 45.5738 73.462 45.8655 73.462 46.2936C73.462 46.7218 73.7598 47.0134 74.1632 47.0134C74.4362 47.0134 74.6656 46.883 74.7649 46.6658L75.5778 47.1313C75.3111 47.6151 74.7836 47.9316 74.1754 47.9316C73.2323 47.9316 72.5312 47.2181 72.5312 46.2936Z" fill="white"/>
<path d="M78.0363 45.971C77.9371 45.6111 77.6579 45.4806 77.3787 45.4806C77.0249 45.4806 76.7891 45.6545 76.7023 45.971H78.0363ZM77.4655 47.1001C77.72 47.1001 77.9371 47.0012 78.061 46.8645L78.8058 47.2926C78.5017 47.7146 78.0426 47.9316 77.4531 47.9316C76.392 47.9316 75.7344 47.2181 75.7344 46.2936C75.7344 45.3692 76.4045 44.6555 77.3848 44.6555C78.2907 44.6555 78.9611 45.3565 78.9611 46.2936C78.9611 46.4239 78.9486 46.548 78.9237 46.6658H76.721C76.8387 46.9884 77.1243 47.1001 77.4655 47.1001Z" fill="white"/>
<path d="M81.1814 47.8452L80.6043 47.026L80.0273 47.8452H78.96L80.0707 46.2691L78.9973 44.7428H80.0646L80.6043 45.5122L81.1441 44.7428H82.2115L81.138 46.2691L82.2486 47.8452H81.1814Z" fill="white"/>
<path d="M87.0577 44.7428V47.8452H86.1519V46.2939L84.8241 47.8452H84.1416V44.7428H85.0472V46.2939L86.3752 44.7428H87.0577Z" fill="white"/>
<path d="M91.2175 47.8442L90.2246 46.4729V47.8442H89.2939V44.7418H90.2246V46.1007L91.1552 44.7418H92.2413L91.1118 46.2931L92.2723 47.8442H91.2175Z" fill="white"/>
<path d="M94.6799 46.2936C94.6799 45.8282 94.3698 45.5367 93.9416 45.5367C93.5135 45.5367 93.2031 45.8282 93.2031 46.2936C93.2031 46.7591 93.5135 47.0505 93.9416 47.0505C94.3698 47.0505 94.6799 46.7591 94.6799 46.2936ZM95.6109 44.7424V47.8447H94.6799V47.5534C94.4752 47.789 94.171 47.9316 93.7554 47.9316C92.9426 47.9316 92.2725 47.2181 92.2725 46.2936C92.2725 45.369 92.9426 44.6555 93.7554 44.6555C94.171 44.6555 94.4752 44.7981 94.6799 45.034V44.7424H95.6109Z" fill="white"/>
<path d="M99.6384 47.8452L98.7945 46.4987V47.8452H97.8885V46.4987L97.0445 47.8452H96.0146L97.0445 46.2941L96.0764 44.7428H97.1066L97.8885 46.0706V44.7428H98.7945V46.0706L99.5762 44.7428H100.606L99.6384 46.2941L100.668 47.8452H99.6384Z" fill="white"/>
<path d="M103.021 46.9761V45.5738H102.332V45.9028C102.332 46.3557 102.271 46.697 102.153 46.9761H103.021ZM104.331 46.9761V48.6763H103.425V47.8447H101.7V48.6763H100.794V46.9761H101.178C101.333 46.7342 101.427 46.4366 101.427 45.9028V44.7425H103.927V46.9761H104.331Z" fill="white"/>
<path d="M106.874 46.2936C106.874 45.8532 106.564 45.5615 106.161 45.5615C105.758 45.5615 105.447 45.8532 105.447 46.2936C105.447 46.7341 105.758 47.0257 106.161 47.0257C106.564 47.0257 106.874 46.7341 106.874 46.2936ZM104.517 46.2936C104.517 45.369 105.249 44.6555 106.161 44.6555C107.073 44.6555 107.805 45.369 107.805 46.2936C107.805 47.2181 107.073 47.9316 106.161 47.9316C105.249 47.9316 104.517 47.2181 104.517 46.2936Z" fill="white"/>
<path d="M110.505 45.6353H109.264V47.8442H108.333V44.7418H110.505V45.6353Z" fill="white"/>
<path d="M112.987 46.2936C112.987 45.8532 112.676 45.5615 112.273 45.5615C111.87 45.5615 111.56 45.8532 111.56 46.2936C111.56 46.7341 111.87 47.0257 112.273 47.0257C112.676 47.0257 112.987 46.7341 112.987 46.2936ZM110.629 46.2936C110.629 45.369 111.361 44.6555 112.273 44.6555C113.185 44.6555 113.918 45.369 113.918 46.2936C113.918 47.2181 113.185 47.9316 112.273 47.9316C111.361 47.9316 110.629 47.2181 110.629 46.2936Z" fill="white"/>
</g>
<mask id="mask3_585_2316" style="mask-type:luminance" maskUnits="userSpaceOnUse" x="32" y="12" width="29" height="42">
<path d="M32.2275 12.2353H60.8379V53.6323H32.2275V12.2353Z" fill="white"/>
</mask>
<g mask="url(#mask3_585_2316)">
<mask id="mask4_585_2316" style="mask-type:luminance" maskUnits="userSpaceOnUse" x="32" y="12" width="29" height="42">
<path d="M32.2275 49.7576V53.6323C32.7988 51.2537 36.659 48.026 40.7633 48.026H60.8379V12.2353H40.7633C37.1531 12.2353 33.9853 14.1624 32.2275 17.0357V25.598V49.7576Z" fill="white"/>
</mask>
<g mask="url(#mask4_585_2316)">
<mask id="mask5_585_2316" style="mask-type:luminance" maskUnits="userSpaceOnUse" x="-5607" y="-5437" width="11064" height="11063">
<path d="M-5606.48 -5436.82H5456.05V5625.71H-5606.48V-5436.82Z" fill="url(#paint0_linear_585_2316)"/>
</mask>
<g mask="url(#mask5_585_2316)">
<path d="M32.2275 49.7576V53.6323C32.7988 51.2537 36.659 48.026 40.7633 48.026H60.8379V12.2353H40.7633C37.1531 12.2353 33.9853 14.1624 32.2275 17.0357V25.598V49.7576Z" fill="url(#paint1_linear_585_2316)"/>
</g>
</g>
</g>
<mask id="mask6_585_2316" style="mask-type:luminance" maskUnits="userSpaceOnUse" x="3" y="12" width="30" height="42">
<path d="M3.61914 12.2348H32.2293V53.6318H3.61914V12.2348Z" fill="white"/>
</mask>
<g mask="url(#mask6_585_2316)">
<mask id="mask7_585_2316" style="mask-type:luminance" maskUnits="userSpaceOnUse" x="3" y="12" width="30" height="42">
<path d="M32.2334 49.7566V53.6313C31.5278 51.4045 27.8019 48.025 23.6978 48.025H3.62305V12.2343H23.6978C27.3078 12.2343 30.4756 14.1614 32.2334 17.0348V25.597V49.7566Z" fill="white"/>
</mask>
<g mask="url(#mask7_585_2316)">
<mask id="mask8_585_2316" style="mask-type:luminance" maskUnits="userSpaceOnUse" x="-5607" y="-5437" width="11064" height="11063">
<path d="M-5606.48 -5436.82H5456.05V5625.71H-5606.48V-5436.82Z" fill="url(#paint2_linear_585_2316)"/>
</mask>
<g mask="url(#mask8_585_2316)">
<path d="M32.2353 49.7566V53.6313C31.5297 51.4045 27.8039 48.025 23.6998 48.025H3.625V12.2343H23.6998C27.3098 12.2343 30.4776 14.1614 32.2353 17.0348V25.597V49.7566Z" fill="url(#paint3_linear_585_2316)"/>
</g>
</g>
</g>
<mask id="mask9_585_2316" style="mask-type:luminance" maskUnits="userSpaceOnUse" x="32" y="-1" width="24" height="50">
<path d="M32.2275 -0.0727272H55.4979V48.6836H32.2275V-0.0727272Z" fill="white"/>
</mask>
<g mask="url(#mask9_585_2316)">
<mask id="mask10_585_2316" style="mask-type:luminance" maskUnits="userSpaceOnUse" x="32" y="-1" width="24" height="50">
<path d="M32.2277 17.4334C32.2277 17.4334 32.2275 11.4692 32.2275 11.2092C33.2139 8.33721 36.4282 7.01093 38.2118 6.32272C41.193 5.17249 53.4156 0.691265 53.5386 0.645859L55.4979 -0.0722389V36.7342L54.5065 37.0687C54.3891 37.1084 42.7489 41.1057 39.8711 42.0567C35.8961 43.3702 32.7382 46.9532 32.2277 48.6841V44.9821V17.4334Z" fill="white"/>
</mask>
<g mask="url(#mask10_585_2316)">
<mask id="mask11_585_2316" style="mask-type:luminance" maskUnits="userSpaceOnUse" x="-5607" y="-5437" width="11064" height="11063">
<path d="M-5606.48 -5436.82H5456.05V5625.71H-5606.48V-5436.82Z" fill="url(#paint4_linear_585_2316)"/>
</mask>
<g mask="url(#mask11_585_2316)">
<path d="M32.2277 17.4324C32.2277 17.4324 32.2275 11.4682 32.2275 11.2083C33.2139 8.33624 36.4282 7.00995 38.2118 6.32174C41.193 5.17151 53.4156 0.690289 53.5386 0.644882L55.4979 -0.0732155V36.7332L54.5065 37.0677C54.3891 37.1074 42.7489 41.1047 39.8711 42.0557C35.8961 43.3692 32.7382 46.9522 32.2277 48.6831V44.9811V17.4324Z" fill="url(#paint5_linear_585_2316)"/>
</g>
</g>
</g>
<mask id="mask12_585_2316" style="mask-type:luminance" maskUnits="userSpaceOnUse" x="8" y="-1" width="25" height="50">
<path d="M8.95996 -0.0696335H32.2302V48.6865H8.95996V-0.0696335Z" fill="white"/>
</mask>
<g mask="url(#mask12_585_2316)">
<mask id="mask13_585_2316" style="mask-type:luminance" maskUnits="userSpaceOnUse" x="8" y="-1" width="25" height="50">
<path d="M32.2284 17.4366C32.2284 17.4366 32.2284 11.4112 32.2284 11.2127C31.5144 8.78155 28.0279 7.01418 26.2443 6.32613C23.2631 5.17574 11.0405 0.694515 10.9173 0.649277L8.95801 -0.068821V36.7376L9.94939 37.072C10.0669 37.1116 21.707 41.1089 24.585 42.0599C28.56 43.3734 31.7179 46.9566 32.2284 48.6875V44.9853V17.4366Z" fill="white"/>
</mask>
<g mask="url(#mask13_585_2316)">
<mask id="mask14_585_2316" style="mask-type:luminance" maskUnits="userSpaceOnUse" x="-5607" y="-5437" width="11064" height="11063">
<path d="M-5606.49 -5436.82H5456.04V5625.71H-5606.49V-5436.82Z" fill="url(#paint6_linear_585_2316)"/>
</mask>
<g mask="url(#mask14_585_2316)">
<path d="M32.2264 17.4361C32.2264 17.4361 32.2264 11.4107 32.2264 11.2122C31.5124 8.78106 28.0259 7.01369 26.2424 6.32565C23.2611 5.17525 11.0386 0.694027 10.9154 0.648788L8.95605 -0.0693092V36.7371L9.94744 37.0715C10.0649 37.1112 21.7051 41.1084 24.583 42.0595C28.558 43.3729 31.716 46.9561 32.2264 48.687V44.9848V17.4361Z" fill="url(#paint7_linear_585_2316)"/>
</g>
</g>
</g>
</g>
<mask id="mask15_585_2316" style="mask-type:luminance" maskUnits="userSpaceOnUse" x="32" y="20" width="12" height="20">
<path d="M32.2266 22.9511V26.7737V35.6284V39.6934C32.2266 37.2552 37.4041 34.3975 39.6532 32.6906C40.4204 32.108 41.0832 31.6051 41.5627 31.1659C42.6993 30.1252 43.351 28.5245 43.351 26.7737C43.351 23.3004 40.5251 20.4744 37.0518 20.4744C35.1141 20.4744 33.3861 21.5278 32.2266 22.9511Z" fill="white"/>
</mask>
<g mask="url(#mask15_585_2316)">
<mask id="mask16_585_2316" style="mask-type:luminance" maskUnits="userSpaceOnUse" x="-5607" y="-5437" width="11064" height="11063">
<path d="M-5606.49 -5436.82H5456.04V5625.71H-5606.49V-5436.82Z" fill="url(#paint8_linear_585_2316)"/>
</mask>
<g mask="url(#mask16_585_2316)">
<path d="M32.2246 22.9516V26.7741V35.6289V39.6938C32.2246 37.2557 37.4021 34.398 39.6513 32.691C40.4185 32.1085 41.0812 31.6056 41.5608 31.1664C42.6973 30.1257 43.3491 28.525 43.3491 26.7741C43.3491 23.3008 40.5232 20.4749 37.0499 20.4749C35.1122 20.4749 33.3841 21.5282 32.2246 22.9516Z" fill="url(#paint9_linear_585_2316)"/>
</g>
</g>
<mask id="mask17_585_2316" style="mask-type:luminance" maskUnits="userSpaceOnUse" x="21" y="20" width="12" height="20">
<path d="M21.1055 26.7737C21.1055 28.5245 21.7571 30.1252 22.8936 31.1659C23.3733 31.6051 24.0359 32.108 24.8029 32.6906C27.0526 34.3975 32.2298 37.2552 32.2298 39.6934V35.6284V26.7737V22.9511C31.0703 21.5278 29.3424 20.4744 27.4045 20.4744C23.9312 20.4744 21.1055 23.3004 21.1055 26.7737Z" fill="white"/>
</mask>
<g mask="url(#mask17_585_2316)">
<mask id="mask18_585_2316" style="mask-type:luminance" maskUnits="userSpaceOnUse" x="-5607" y="-5437" width="11064" height="11063">
<path d="M-5606.48 -5436.82H5456.05V5625.71H-5606.48V-5436.82Z" fill="url(#paint10_linear_585_2316)"/>
</mask>
<g mask="url(#mask18_585_2316)">
<path d="M21.1055 26.7732C21.1055 28.524 21.7571 30.1248 22.8936 31.1654C23.3733 31.6047 24.0359 32.1075 24.8029 32.6901C27.0526 34.397 32.2298 37.2547 32.2298 39.6929V35.6279V26.7732V22.9506C31.0703 21.5273 29.3424 20.4739 27.4045 20.4739C23.9312 20.4739 21.1055 23.2999 21.1055 26.7732Z" fill="url(#paint11_linear_585_2316)"/>
</g>
</g>
<mask id="mask19_585_2316" style="mask-type:luminance" maskUnits="userSpaceOnUse" x="32" y="12" width="29" height="42">
<path d="M32.2324 12.2339H60.8426V53.6309H32.2324V12.2339Z" fill="white"/>
</mask>
<g mask="url(#mask19_585_2316)">
<mask id="mask20_585_2316" style="mask-type:luminance" maskUnits="userSpaceOnUse" x="32" y="12" width="29" height="42">
<path d="M32.2354 49.7561V53.6309C32.8066 51.2523 36.6668 48.0246 40.7711 48.0246H60.8455V12.2339H40.7711C37.1609 12.2339 33.9931 14.1609 32.2354 17.0345V25.5965V49.7561Z" fill="white"/>
</mask>
<g mask="url(#mask20_585_2316)">
<mask id="mask21_585_2316" style="mask-type:luminance" maskUnits="userSpaceOnUse" x="-5607" y="-5437" width="11064" height="11063">
<path d="M-5606.48 -5436.82H5456.05V5625.71H-5606.48V-5436.82Z" fill="url(#paint12_linear_585_2316)"/>
</mask>
<g mask="url(#mask21_585_2316)">
<path d="M32.2354 49.7561V53.6309C32.8066 51.2523 36.6668 48.0246 40.7711 48.0246H60.8455V12.2339H40.7711C37.1609 12.2339 33.9931 14.1609 32.2354 17.0345V25.5965V49.7561Z" fill="url(#paint13_linear_585_2316)"/>
</g>
</g>
</g>
<mask id="mask22_585_2316" style="mask-type:luminance" maskUnits="userSpaceOnUse" x="3" y="12" width="30" height="42">
<path d="M3.62207 12.2339H32.2324V53.6309H3.62207V12.2339Z" fill="white"/>
</mask>
<g mask="url(#mask22_585_2316)">
<mask id="mask23_585_2316" style="mask-type:luminance" maskUnits="userSpaceOnUse" x="3" y="12" width="30" height="42">
<path d="M32.2293 49.7561V53.6309C31.5239 51.404 27.7979 48.0246 23.6936 48.0246H3.61914V12.2339H23.6936C27.3038 12.2339 30.4715 14.1609 32.2293 17.0345V25.5965V49.7561Z" fill="white"/>
</mask>
<g mask="url(#mask23_585_2316)">
<mask id="mask24_585_2316" style="mask-type:luminance" maskUnits="userSpaceOnUse" x="-5607" y="-5437" width="11064" height="11063">
<path d="M-5606.49 -5436.82H5456.04V5625.71H-5606.49V-5436.82Z" fill="url(#paint14_linear_585_2316)"/>
</mask>
<g mask="url(#mask24_585_2316)">
<path d="M32.2273 49.7561V53.6309C31.5219 51.404 27.7959 48.0246 23.6916 48.0246H3.61719V12.2339H23.6916C27.3018 12.2339 30.4696 14.1609 32.2273 17.0345V25.5965V49.7561Z" fill="url(#paint15_linear_585_2316)"/>
</g>
</g>
</g>
<mask id="mask25_585_2316" style="mask-type:luminance" maskUnits="userSpaceOnUse" x="32" y="-1" width="24" height="50">
<path d="M32.2324 -0.0737038H55.5028V48.6826H32.2324V-0.0737038Z" fill="white"/>
</mask>
<g mask="url(#mask25_585_2316)">
<mask id="mask26_585_2316" style="mask-type:luminance" maskUnits="userSpaceOnUse" x="32" y="-1" width="24" height="50">
<path d="M32.2355 17.4324C32.2355 17.4324 32.2354 11.4682 32.2354 11.2084C33.2217 8.33623 36.436 7.00995 38.2196 6.32174C41.2007 5.17151 53.4234 0.690289 53.5466 0.644882L55.5057 -0.0732155V36.7332L54.5144 37.0677C54.397 37.1074 42.7567 41.1048 39.8789 42.0557C35.904 43.3692 32.746 46.9522 32.2355 48.6831V44.9811V17.4324Z" fill="white"/>
</mask>
<g mask="url(#mask26_585_2316)">
<mask id="mask27_585_2316" style="mask-type:luminance" maskUnits="userSpaceOnUse" x="-5607" y="-5437" width="11064" height="11063">
<path d="M-5606.48 -5436.82H5456.05V5625.71H-5606.48V-5436.82Z" fill="url(#paint16_linear_585_2316)"/>
</mask>
<g mask="url(#mask27_585_2316)">
<path d="M32.2355 17.4314C32.2355 17.4314 32.2354 11.4672 32.2354 11.2074C33.2217 8.33525 36.436 7.00897 38.2196 6.32076C41.2007 5.17054 53.4234 0.689312 53.5466 0.643906L55.5057 -0.074192V36.7322L54.5144 37.0668C54.397 37.1064 42.7567 41.1039 39.8789 42.0547C35.904 43.3682 32.746 46.9512 32.2355 48.6821V44.9801V17.4314Z" fill="url(#paint17_linear_585_2316)"/>
</g>
</g>
</g>
<mask id="mask28_585_2316" style="mask-type:luminance" maskUnits="userSpaceOnUse" x="8" y="-1" width="25" height="50">
<path d="M8.95801 -0.0701218H32.2284V48.686H8.95801V-0.0701218Z" fill="white"/>
</mask>
<g mask="url(#mask28_585_2316)">
<mask id="mask29_585_2316" style="mask-type:luminance" maskUnits="userSpaceOnUse" x="8" y="-1" width="25" height="50">
<path d="M32.2253 17.4361C32.2253 17.4361 32.2253 11.4107 32.2253 11.2122C31.5113 8.78105 28.0246 7.01385 26.2412 6.32564C23.26 5.17525 11.0374 0.694023 10.9142 0.648785L8.95508 -0.0693092V36.7371L9.94629 37.0715C10.0638 37.1113 21.704 41.1086 24.5819 42.0595C28.5569 43.3729 31.7148 46.9561 32.2253 48.687V44.9848V17.4361Z" fill="white"/>
</mask>
<g mask="url(#mask29_585_2316)">
<mask id="mask30_585_2316" style="mask-type:luminance" maskUnits="userSpaceOnUse" x="-5607" y="-5437" width="11064" height="11063">
<path d="M-5606.49 -5436.82H5456.04V5625.71H-5606.49V-5436.82Z" fill="url(#paint18_linear_585_2316)"/>
</mask>
<g mask="url(#mask30_585_2316)">
<path d="M32.2253 17.4376C32.2253 17.4376 32.2253 11.4121 32.2253 11.2136C31.5113 8.78252 28.0246 7.01532 26.2412 6.32711C23.26 5.17671 11.0374 0.695488 10.9142 0.650249L8.95508 -0.0678444V36.7385L9.94629 37.073C10.0638 37.1128 21.704 41.1101 24.5819 42.0609C28.5569 43.3744 31.7148 46.9576 32.2253 48.6885V44.9863V17.4376Z" fill="url(#paint19_linear_585_2316)"/>
</g>
</g>
</g>
<mask id="mask31_585_2316" style="mask-type:luminance" maskUnits="userSpaceOnUse" x="32" y="20" width="12" height="20">
<path d="M32.2305 22.9514V26.7741V35.6287V39.6938C32.2305 37.2553 37.4078 34.3978 39.6573 32.6909C40.4244 32.1083 41.0871 31.6055 41.5666 31.1662C42.7032 30.1256 43.355 28.5248 43.355 26.7741C43.355 23.3007 40.529 20.4747 37.0557 20.4747C35.118 20.4747 33.39 21.5282 32.2305 22.9514Z" fill="white"/>
</mask>
<g mask="url(#mask31_585_2316)">
<mask id="mask32_585_2316" style="mask-type:luminance" maskUnits="userSpaceOnUse" x="-5607" y="-5437" width="11064" height="11063">
<path d="M-5606.48 -5436.82H5456.05V5625.71H-5606.48V-5436.82Z" fill="url(#paint20_linear_585_2316)"/>
</mask>
<g mask="url(#mask32_585_2316)">
<path d="M32.2285 22.9524V26.7751V35.6297V39.6948C32.2285 37.2563 37.4059 34.3988 39.6554 32.6918C40.4224 32.1093 41.0851 31.6064 41.5647 31.1672C42.7012 30.1265 43.353 28.5258 43.353 26.7751C43.353 23.3017 40.5271 20.4757 37.0538 20.4757C35.1161 20.4757 33.388 21.5292 32.2285 22.9524Z" fill="url(#paint21_linear_585_2316)"/>
</g>
</g>
<mask id="mask33_585_2316" style="mask-type:luminance" maskUnits="userSpaceOnUse" x="21" y="20" width="12" height="20">
<path d="M21.1055 26.7737C21.1055 28.5243 21.757 30.1251 22.8938 31.1658C23.3733 31.605 24.0359 32.1078 24.8031 32.6904C27.0526 34.3973 32.2298 37.2548 32.2298 39.6934V35.6282V26.7737V22.9509C31.0703 21.5278 29.3422 20.4743 27.4045 20.4743C23.9314 20.4743 21.1055 23.3002 21.1055 26.7737Z" fill="white"/>
</mask>
<g mask="url(#mask33_585_2316)">
<mask id="mask34_585_2316" style="mask-type:luminance" maskUnits="userSpaceOnUse" x="-5607" y="-5437" width="11064" height="11063">
<path d="M-5606.48 -5436.82H5456.05V5625.71H-5606.48V-5436.82Z" fill="url(#paint22_linear_585_2316)"/>
</mask>
<g mask="url(#mask34_585_2316)">
<path d="M21.1055 26.7732C21.1055 28.5238 21.757 30.1246 22.8938 31.1653C23.3733 31.6045 24.0359 32.1074 24.8031 32.6899C27.0526 34.3968 32.2298 37.2543 32.2298 39.6929V35.6277V26.7732V22.9505C31.0703 21.5273 29.3422 20.4738 27.4045 20.4738C23.9314 20.4738 21.1055 23.2997 21.1055 26.7732Z" fill="url(#paint23_linear_585_2316)"/>
</g>
</g>
</g>
<defs>
<linearGradient id="paint0_linear_585_2316" x1="31.5702" y1="32.9316" x2="60.6243" y2="32.9316" gradientUnits="userSpaceOnUse">
<stop stop-color="white"/>
<stop offset="1" stop-color="white" stop-opacity="0.500008"/>
</linearGradient>
<linearGradient id="paint1_linear_585_2316" x1="31.5693" y1="32.9338" x2="60.6234" y2="32.9338" gradientUnits="userSpaceOnUse">
<stop stop-color="#32936F"/>
<stop offset="1" stop-color="#32936F"/>
</linearGradient>
<linearGradient id="paint2_linear_585_2316" x1="32.5464" y1="32.9344" x2="3.26216" y2="32.9344" gradientUnits="userSpaceOnUse">
<stop stop-color="white" stop-opacity="0.500008"/>
<stop offset="1" stop-color="white"/>
</linearGradient>
<linearGradient id="paint3_linear_585_2316" x1="32.5474" y1="32.9328" x2="3.26318" y2="32.9328" gradientUnits="userSpaceOnUse">
<stop stop-color="#F0DA5F"/>
<stop offset="1" stop-color="#F0DA5F"/>
</linearGradient>
<linearGradient id="paint4_linear_585_2316" x1="32.2287" y1="24.3035" x2="55.499" y2="24.3035" gradientUnits="userSpaceOnUse">
<stop stop-color="white"/>
<stop offset="1" stop-color="white" stop-opacity="0.500008"/>
</linearGradient>
<linearGradient id="paint5_linear_585_2316" x1="32.2276" y1="24.3049" x2="55.498" y2="24.3049" gradientUnits="userSpaceOnUse">
<stop stop-color="#E8632A"/>
<stop offset="1" stop-color="#E8632A"/>
</linearGradient>
<linearGradient id="paint6_linear_585_2316" x1="32.0548" y1="24.3107" x2="9.25879" y2="24.3107" gradientUnits="userSpaceOnUse">
<stop stop-color="white"/>
<stop offset="0.998037" stop-color="white" stop-opacity="0.500008"/>
<stop offset="1" stop-color="white" stop-opacity="0.500008"/>
</linearGradient>
<linearGradient id="paint7_linear_585_2316" x1="32.0542" y1="24.3088" x2="9.25818" y2="24.3088" gradientUnits="userSpaceOnUse">
<stop stop-color="#64C1DA"/>
<stop offset="0.998037" stop-color="#64C1DA"/>
<stop offset="1" stop-color="#64C1DA"/>
</linearGradient>
<linearGradient id="paint8_linear_585_2316" x1="32.2268" y1="30.084" x2="43.3511" y2="30.084" gradientUnits="userSpaceOnUse">
<stop stop-color="white" stop-opacity="0.6"/>
<stop offset="1" stop-color="white"/>
</linearGradient>
<linearGradient id="paint9_linear_585_2316" x1="32.2248" y1="30.0844" x2="43.349" y2="30.0844" gradientUnits="userSpaceOnUse">
<stop stop-color="#E8632A"/>
<stop offset="1" stop-color="#E8632A"/>
</linearGradient>
<linearGradient id="paint10_linear_585_2316" x1="32.5862" y1="30.0837" x2="20.9254" y2="30.0837" gradientUnits="userSpaceOnUse">
<stop stop-color="white" stop-opacity="0.6"/>
<stop offset="1" stop-color="white"/>
</linearGradient>
<linearGradient id="paint11_linear_585_2316" x1="32.5847" y1="30.0834" x2="20.924" y2="30.0834" gradientUnits="userSpaceOnUse">
<stop stop-color="#F7BFBF"/>
<stop offset="1" stop-color="#F7BFBF"/>
</linearGradient>
<linearGradient id="paint12_linear_585_2316" x1="31.5783" y1="32.9336" x2="60.6324" y2="32.9336" gradientUnits="userSpaceOnUse">
<stop stop-color="white"/>
<stop offset="1" stop-color="white" stop-opacity="0.500008"/>
</linearGradient>
<linearGradient id="paint13_linear_585_2316" x1="31.5771" y1="32.9324" x2="60.6312" y2="32.9324" gradientUnits="userSpaceOnUse">
<stop stop-color="#32936F"/>
<stop offset="1" stop-color="#32936F"/>
</linearGradient>
<linearGradient id="paint14_linear_585_2316" x1="32.5413" y1="32.933" x2="3.25712" y2="32.933" gradientUnits="userSpaceOnUse">
<stop stop-color="white" stop-opacity="0.500008"/>
<stop offset="1" stop-color="white"/>
</linearGradient>
<linearGradient id="paint15_linear_585_2316" x1="32.5394" y1="32.9324" x2="3.25519" y2="32.9324" gradientUnits="userSpaceOnUse">
<stop stop-color="#F0DA5F"/>
<stop offset="1" stop-color="#F0DA5F"/>
</linearGradient>
<linearGradient id="paint16_linear_585_2316" x1="32.2368" y1="24.3051" x2="55.5072" y2="24.3051" gradientUnits="userSpaceOnUse">
<stop stop-color="white"/>
<stop offset="1" stop-color="white" stop-opacity="0.500008"/>
</linearGradient>
<linearGradient id="paint17_linear_585_2316" x1="32.2354" y1="24.304" x2="55.5058" y2="24.304" gradientUnits="userSpaceOnUse">
<stop stop-color="#E8632A"/>
<stop offset="1" stop-color="#E8632A"/>
</linearGradient>
<linearGradient id="paint18_linear_585_2316" x1="32.0526" y1="24.3103" x2="9.25662" y2="24.3103" gradientUnits="userSpaceOnUse">
<stop stop-color="white"/>
<stop offset="0.998037" stop-color="white" stop-opacity="0.500008"/>
<stop offset="1" stop-color="white" stop-opacity="0.500008"/>
</linearGradient>
<linearGradient id="paint19_linear_585_2316" x1="32.053" y1="24.3102" x2="9.25702" y2="24.3102" gradientUnits="userSpaceOnUse">
<stop stop-color="#64C1DA"/>
<stop offset="0.998037" stop-color="#64C1DA"/>
<stop offset="1" stop-color="#64C1DA"/>
</linearGradient>
<linearGradient id="paint20_linear_585_2316" x1="32.2309" y1="30.0846" x2="43.3552" y2="30.0846" gradientUnits="userSpaceOnUse">
<stop stop-color="white" stop-opacity="0.6"/>
<stop offset="1" stop-color="white"/>
</linearGradient>
<linearGradient id="paint21_linear_585_2316" x1="32.2286" y1="30.0852" x2="43.3529" y2="30.0852" gradientUnits="userSpaceOnUse">
<stop stop-color="#E8632A"/>
<stop offset="1" stop-color="#E8632A"/>
</linearGradient>
<linearGradient id="paint22_linear_585_2316" x1="32.5855" y1="30.0837" x2="20.9248" y2="30.0837" gradientUnits="userSpaceOnUse">
<stop stop-color="white" stop-opacity="0.6"/>
<stop offset="1" stop-color="white"/>
</linearGradient>
<linearGradient id="paint23_linear_585_2316" x1="32.5847" y1="30.0833" x2="20.924" y2="30.0833" gradientUnits="userSpaceOnUse">
<stop stop-color="#F7BFBF"/>
<stop offset="1" stop-color="#F7BFBF"/>
</linearGradient>
<clipPath id="clip0_585_2316">
<rect width="119" height="53.3448" fill="white"/>
</clipPath>
</defs>
</svg>
